#VRML V2.0 utf8
# Nichia NSSW157T body 3.0 x 1.4 x 0.52 mm (illustration only). mm units, use scale 0.3937
Shape {
 appearance Appearance { material Material { diffuseColor 0.95 0.95 0.9 specularColor 0.3 0.3 0.3 transparency 0.0 } }
 geometry IndexedFaceSet { coord Coordinate { point [ -1.5000 -0.7000 0.0000, 1.5000 -0.7000 0.0000, 1.5000 0.7000 0.0000, -1.5000 0.7000 0.0000, -1.5000 -0.7000 0.5200, 1.5000 -0.7000 0.5200, 1.5000 0.7000 0.5200, -1.5000 0.7000 0.5200 ] } coordIndex [ 0,3,2,1,-1, 4,5,6,7,-1, 0,1,5,4,-1, 1,2,6,5,-1, 2,3,7,6,-1, 3,0,4,7,-1 ] solid FALSE }
}
Shape {
 appearance Appearance { material Material { diffuseColor 1.0 0.9 0.3 specularColor 0.3 0.3 0.3 transparency 0.0 } }
 geometry IndexedFaceSet { coord Coordinate { point [ -1.0000 -0.4500 0.5200, 1.0000 -0.4500 0.5200, 1.0000 0.4500 0.5200, -1.0000 0.4500 0.5200, -1.0000 -0.4500 0.5300, 1.0000 -0.4500 0.5300, 1.0000 0.4500 0.5300, -1.0000 0.4500 0.5300 ] } coordIndex [ 0,3,2,1,-1, 4,5,6,7,-1, 0,1,5,4,-1, 1,2,6,5,-1, 2,3,7,6,-1, 3,0,4,7,-1 ] solid FALSE }
}
