#VRML V2.0 utf8
# XIAO ESP32S3 Sense on 2 x 1x7 sockets (illustration only; heights assumed). mm units, use scale 0.3937
Shape {
 appearance Appearance { material Material { diffuseColor 0.08 0.08 0.09 specularColor 0.3 0.3 0.3 transparency 0.0 } }
 geometry IndexedFaceSet { coord Coordinate { point [ -8.8900 -8.8900 0.0000, -6.3500 -8.8900 0.0000, -6.3500 8.8900 0.0000, -8.8900 8.8900 0.0000, -8.8900 -8.8900 8.5000, -6.3500 -8.8900 8.5000, -6.3500 8.8900 8.5000, -8.8900 8.8900 8.5000 ] } coordIndex [ 0,3,2,1,-1, 4,5,6,7,-1, 0,1,5,4,-1, 1,2,6,5,-1, 2,3,7,6,-1, 3,0,4,7,-1 ] solid FALSE }
}
Shape {
 appearance Appearance { material Material { diffuseColor 0.08 0.08 0.09 specularColor 0.3 0.3 0.3 transparency 0.0 } }
 geometry IndexedFaceSet { coord Coordinate { point [ 6.3500 -8.8900 0.0000, 8.8900 -8.8900 0.0000, 8.8900 8.8900 0.0000, 6.3500 8.8900 0.0000, 6.3500 -8.8900 8.5000, 8.8900 -8.8900 8.5000, 8.8900 8.8900 8.5000, 6.3500 8.8900 8.5000 ] } coordIndex [ 0,3,2,1,-1, 4,5,6,7,-1, 0,1,5,4,-1, 1,2,6,5,-1, 2,3,7,6,-1, 3,0,4,7,-1 ] solid FALSE }
}
Shape {
 appearance Appearance { material Material { diffuseColor 0.12 0.12 0.16 specularColor 0.3 0.3 0.3 transparency 0.0 } }
 geometry IndexedFaceSet { coord Coordinate { point [ -8.9000 -10.5000 8.5000, 8.9000 -10.5000 8.5000, 8.9000 10.5000 8.5000, -8.9000 10.5000 8.5000, -8.9000 -10.5000 9.7000, 8.9000 -10.5000 9.7000, 8.9000 10.5000 9.7000, -8.9000 10.5000 9.7000 ] } coordIndex [ 0,3,2,1,-1, 4,5,6,7,-1, 0,1,5,4,-1, 1,2,6,5,-1, 2,3,7,6,-1, 3,0,4,7,-1 ] solid FALSE }
}
Shape {
 appearance Appearance { material Material { diffuseColor 0.78 0.78 0.8 specularColor 0.3 0.3 0.3 transparency 0.0 } }
 geometry IndexedFaceSet { coord Coordinate { point [ -4.5000 3.4000 9.7000, 4.5000 3.4000 9.7000, 4.5000 10.7000 9.7000, -4.5000 10.7000 9.7000, -4.5000 3.4000 12.9000, 4.5000 3.4000 12.9000, 4.5000 10.7000 12.9000, -4.5000 10.7000 12.9000 ] } coordIndex [ 0,3,2,1,-1, 4,5,6,7,-1, 0,1,5,4,-1, 1,2,6,5,-1, 2,3,7,6,-1, 3,0,4,7,-1 ] solid FALSE }
}
Shape {
 appearance Appearance { material Material { diffuseColor 0.1 0.35 0.2 specularColor 0.3 0.3 0.3 transparency 0.0 } }
 geometry IndexedFaceSet { coord Coordinate { point [ -8.9150 -10.5000 11.2000, 8.9150 -10.5000 11.2000, 8.9150 4.9200 11.2000, -8.9150 4.9200 11.2000, -8.9150 -10.5000 12.2000, 8.9150 -10.5000 12.2000, 8.9150 4.9200 12.2000, -8.9150 4.9200 12.2000 ] } coordIndex [ 0,3,2,1,-1, 4,5,6,7,-1, 0,1,5,4,-1, 1,2,6,5,-1, 2,3,7,6,-1, 3,0,4,7,-1 ] solid FALSE }
}
