%TF.GenerationSoftware,KiCad,Pcbnew,10.0.1*%
%TF.CreationDate,2026-10-02T14:17:41+09:00*%
%TF.ProjectId,head-sensor-board,68656164-2d73-4656-9e73-6f722d626f61,rev?*%
%TF.SameCoordinates,Original*%
%TF.FileFunction,Paste,Top*%
%TF.FilePolarity,Positive*%
%FSLAX46Y46*%
G04 Gerber Fmt 4.6, Leading zero omitted, Abs format (unit mm)*
G04 Created by KiCad (PCBNEW 10.0.1) date 2026-10-02 14:17:41*
%MOMM*%
%LPD*%
G01*
G04 APERTURE LIST*
G04 Aperture macros list*
%AMRoundRect*
0 Rectangle with rounded corners*
0 $1 Rounding radius*
0 $2 $3 $4 $5 $6 $7 $8 $9 X,Y pos of 4 corners*
0 Add a 4 corners polygon primitive as box body*
4,1,4,$2,$3,$4,$5,$6,$7,$8,$9,$2,$3,0*
0 Add four circle primitives for the rounded corners*
1,1,$1+$1,$2,$3*
1,1,$1+$1,$4,$5*
1,1,$1+$1,$6,$7*
1,1,$1+$1,$8,$9*
0 Add four rect primitives between the rounded corners*
20,1,$1+$1,$2,$3,$4,$5,0*
20,1,$1+$1,$4,$5,$6,$7,0*
20,1,$1+$1,$6,$7,$8,$9,0*
20,1,$1+$1,$8,$9,$2,$3,0*%
%AMFreePoly0*
4,1,9,0.300000,0.430000,1.960000,0.430000,1.960000,-0.430000,0.300000,-0.430000,0.300000,-0.775000,-0.300000,-0.775000,-0.300000,0.775000,0.300000,0.775000,0.300000,0.430000,0.300000,0.430000,$1*%
%AMFreePoly1*
4,1,9,0.300000,-0.775000,-0.300000,-0.775000,-0.300000,-0.430000,-0.940000,-0.430000,-0.940000,0.430000,-0.300000,0.430000,-0.300000,0.775000,0.300000,0.775000,0.300000,-0.775000,0.300000,-0.775000,$1*%
G04 Aperture macros list end*
%ADD10RoundRect,0.250000X-0.362500X-1.075000X0.362500X-1.075000X0.362500X1.075000X-0.362500X1.075000X0*%
%ADD11RoundRect,0.200000X-0.275000X0.200000X-0.275000X-0.200000X0.275000X-0.200000X0.275000X0.200000X0*%
%ADD12RoundRect,0.200000X0.275000X-0.200000X0.275000X0.200000X-0.275000X0.200000X-0.275000X-0.200000X0*%
%ADD13RoundRect,0.200000X-0.200000X-0.275000X0.200000X-0.275000X0.200000X0.275000X-0.200000X0.275000X0*%
%ADD14RoundRect,0.150000X-0.587500X-0.150000X0.587500X-0.150000X0.587500X0.150000X-0.587500X0.150000X0*%
%ADD15RoundRect,0.225000X-0.250000X0.225000X-0.250000X-0.225000X0.250000X-0.225000X0.250000X0.225000X0*%
%ADD16RoundRect,0.250000X-0.475000X0.250000X-0.475000X-0.250000X0.475000X-0.250000X0.475000X0.250000X0*%
%ADD17FreePoly0,0.000000*%
%ADD18FreePoly1,0.000000*%
G04 APERTURE END LIST*
D10*
%TO.C,R3*%
X1887499Y13500000D03*
X6512499Y13500000D03*
%TD*%
D11*
%TO.C,R15*%
X16180000Y19425000D03*
X16180000Y17775000D03*
%TD*%
%TO.C,R9*%
X35400000Y7825000D03*
X35400000Y6175000D03*
%TD*%
D12*
%TO.C,R7*%
X8560000Y12075000D03*
X8560000Y13725000D03*
%TD*%
D11*
%TO.C,R16*%
X13640000Y19425000D03*
X13640000Y17775000D03*
%TD*%
%TO.C,R13*%
X13640000Y10425000D03*
X13640000Y8775000D03*
%TD*%
D13*
%TO.C,R1*%
X25775000Y8300000D03*
X27425000Y8300000D03*
%TD*%
D14*
%TO.C,Q2*%
X35462500Y18550000D03*
X35462500Y16650000D03*
X37337500Y17600000D03*
%TD*%
D15*
%TO.C,C2*%
X18720000Y19375000D03*
X18720000Y17825000D03*
%TD*%
D10*
%TO.C,R4*%
X1887499Y17900000D03*
X6512499Y17900000D03*
%TD*%
D14*
%TO.C,Q1*%
X35462500Y11350000D03*
X35462500Y9450000D03*
X37337500Y10400000D03*
%TD*%
D16*
%TO.C,C1*%
X11100000Y19250000D03*
X11100000Y17350000D03*
%TD*%
D11*
%TO.C,R14*%
X16180000Y10425000D03*
X16180000Y8775000D03*
%TD*%
D17*
%TO.C,D1*%
X39300000Y8400000D03*
D18*
X42700000Y8400000D03*
%TD*%
D17*
%TO.C,D2*%
X39300000Y19600000D03*
D18*
X42700000Y19600000D03*
%TD*%
D12*
%TO.C,R6*%
X11100000Y8775000D03*
X11100000Y10425000D03*
%TD*%
%TO.C,R5*%
X8560000Y8775000D03*
X8560000Y10425000D03*
%TD*%
%TO.C,R10*%
X35400000Y20175000D03*
X35400000Y21825000D03*
%TD*%
%TO.C,R8*%
X11100000Y12075000D03*
X11100000Y13725000D03*
%TD*%
D11*
%TO.C,R12*%
X6020000Y10425000D03*
X6020000Y8775000D03*
%TD*%
D15*
%TO.C,C3*%
X18720000Y10375000D03*
X18720000Y8825000D03*
%TD*%
D13*
%TO.C,R2*%
X25775000Y19700000D03*
X27425000Y19700000D03*
%TD*%
D11*
%TO.C,R11*%
X3479999Y10425000D03*
X3479999Y8775000D03*
%TD*%
M02*
