M48
; DRILL file KiCad 10.0.1 date 2026-10-05T18:53:43
; FORMAT={-:-/ absolute / metric / decimal}
; #@! TF.CreationDate,2026-10-05T18:53:43+09:00
; #@! TF.GenerationSoftware,Kicad,Pcbnew,10.0.1
; #@! TF.FileFunction,Plated,1,2,PTH
FMAT,2
METRIC
; #@! TA.AperFunction,Plated,PTH,ViaDrill
T1C0.300
; #@! TA.AperFunction,Plated,PTH,ComponentDrill
T2C1.000
; #@! TA.AperFunction,Plated,PTH,ComponentDrill
T3C1.020
%
G90
G05
T1
X7.671Y13.809
X9.449Y8.666
X9.957Y17.238
X10.211Y13.809
X10.211Y8.983
X10.909Y24.223
X11.989Y11.968
X11.989Y10.698
X12.751Y19.524
X14.275Y24.223
X15.291Y19.524
X15.291Y17.619
X17.514Y12.159
X17.704Y19.524
X17.831Y9.237
X18.148Y11.524
X19.418Y2.633
X19.609Y18.255
X19.99Y22.255
X24.625Y21.175
X24.88Y6.824
X31.547Y12.857
X34.023Y11.524
X34.976Y22.636
X34.976Y5.364
X35.039Y17.81
X37.643Y23.017
X37.643Y4.983
T2
X11.1Y26.55
X11.1Y1.45
X13.64Y26.55
X13.64Y1.45
X16.18Y26.55
X16.18Y1.45
X18.72Y26.55
X18.72Y1.45
X21.26Y26.55
X21.26Y1.45
X23.8Y26.55
X23.8Y1.45
X34.7Y26.3
X34.7Y1.7
X37.24Y26.3
X37.24Y1.7
T3
X3.48Y21.62
X3.48Y6.38
X6.02Y21.62
X6.02Y6.38
X8.56Y21.62
X8.56Y6.38
X11.1Y21.62
X11.1Y6.38
X13.64Y21.62
X13.64Y6.38
X16.18Y21.62
X16.18Y6.38
X18.72Y21.62
X18.72Y6.38
M30
