%TF.GenerationSoftware,KiCad,Pcbnew,10.0.1*%
%TF.CreationDate,2026-10-05T18:53:43+09:00*%
%TF.ProjectId,head-sensor-board,68656164-2d73-4656-9e73-6f722d626f61,rev?*%
%TF.SameCoordinates,Original*%
%TF.FileFunction,Legend,Top*%
%TF.FilePolarity,Positive*%
%FSLAX46Y46*%
G04 Gerber Fmt 4.6, Leading zero omitted, Abs format (unit mm)*
G04 Created by KiCad (PCBNEW 10.0.1) date 2026-10-05 18:53:43*
%MOMM*%
%LPD*%
G01*
G04 APERTURE LIST*
G04 Aperture macros list*
%AMRoundRect*
0 Rectangle with rounded corners*
0 $1 Rounding radius*
0 $2 $3 $4 $5 $6 $7 $8 $9 X,Y pos of 4 corners*
0 Add a 4 corners polygon primitive as box body*
4,1,4,$2,$3,$4,$5,$6,$7,$8,$9,$2,$3,0*
0 Add four circle primitives for the rounded corners*
1,1,$1+$1,$2,$3*
1,1,$1+$1,$4,$5*
1,1,$1+$1,$6,$7*
1,1,$1+$1,$8,$9*
0 Add four rect primitives between the rounded corners*
20,1,$1+$1,$2,$3,$4,$5,0*
20,1,$1+$1,$4,$5,$6,$7,0*
20,1,$1+$1,$6,$7,$8,$9,0*
20,1,$1+$1,$8,$9,$2,$3,0*%
%AMFreePoly0*
4,1,23,0.550000,-0.750000,0.000000,-0.750000,0.000000,-0.745722,-0.065263,-0.745722,-0.191342,-0.711940,-0.304381,-0.646677,-0.396677,-0.554381,-0.461940,-0.441342,-0.495722,-0.315263,-0.495722,-0.250000,-0.500000,-0.250000,-0.500000,0.250000,-0.495722,0.250000,-0.495722,0.315263,-0.461940,0.441342,-0.396677,0.554381,-0.304381,0.646677,-0.191342,0.711940,-0.065263,0.745722,0.000000,0.745722,
0.000000,0.750000,0.550000,0.750000,0.550000,-0.750000,0.550000,-0.750000,$1*%
%AMFreePoly1*
4,1,23,0.000000,0.745722,0.065263,0.745722,0.191342,0.711940,0.304381,0.646677,0.396677,0.554381,0.461940,0.441342,0.495722,0.315263,0.495722,0.250000,0.500000,0.250000,0.500000,-0.250000,0.495722,-0.250000,0.495722,-0.315263,0.461940,-0.441342,0.396677,-0.554381,0.304381,-0.646677,0.191342,-0.711940,0.065263,-0.745722,0.000000,-0.745722,0.000000,-0.750000,-0.550000,-0.750000,
-0.550000,0.750000,0.000000,0.750000,0.000000,0.745722,0.000000,0.745722,$1*%
%AMFreePoly2*
4,1,9,0.300000,0.430000,1.960000,0.430000,1.960000,-0.430000,0.300000,-0.430000,0.300000,-0.775000,-0.300000,-0.775000,-0.300000,0.775000,0.300000,0.775000,0.300000,0.430000,0.300000,0.430000,$1*%
%AMFreePoly3*
4,1,9,0.300000,-0.775000,-0.300000,-0.775000,-0.300000,-0.430000,-0.940000,-0.430000,-0.940000,0.430000,-0.300000,0.430000,-0.300000,0.775000,0.300000,0.775000,0.300000,-0.775000,0.300000,-0.775000,$1*%
G04 Aperture macros list end*
%ADD10C,0.150000*%
%ADD11C,0.200000*%
%ADD12RoundRect,0.200000X0.275000X-0.200000X0.275000X0.200000X-0.275000X0.200000X-0.275000X-0.200000X0*%
%ADD13RoundRect,0.200000X-0.275000X0.200000X-0.275000X-0.200000X0.275000X-0.200000X0.275000X0.200000X0*%
%ADD14RoundRect,0.250000X-0.475000X0.250000X-0.475000X-0.250000X0.475000X-0.250000X0.475000X0.250000X0*%
%ADD15RoundRect,0.150000X-0.587500X-0.150000X0.587500X-0.150000X0.587500X0.150000X-0.587500X0.150000X0*%
%ADD16FreePoly0,270.000000*%
%ADD17R,1.500000X1.000000*%
%ADD18FreePoly1,270.000000*%
%ADD19FreePoly0,90.000000*%
%ADD20FreePoly1,90.000000*%
%ADD21R,1.700000X1.700000*%
%ADD22C,1.700000*%
%ADD23C,1.500000*%
%ADD24RoundRect,0.225000X-0.250000X0.225000X-0.250000X-0.225000X0.250000X-0.225000X0.250000X0.225000X0*%
%ADD25FreePoly2,0.000000*%
%ADD26FreePoly3,0.000000*%
%ADD27R,1.800000X1.800000*%
%ADD28C,1.800000*%
%ADD29RoundRect,0.200000X-0.200000X-0.275000X0.200000X-0.275000X0.200000X0.275000X-0.200000X0.275000X0*%
%ADD30RoundRect,0.250000X-0.362500X-1.075000X0.362500X-1.075000X0.362500X1.075000X-0.362500X1.075000X0*%
%ADD31C,2.200000*%
G04 APERTURE END LIST*
D10*
X900000Y1700000D02*
X1699999Y2200000D01*
X900000Y1700000D02*
X1699999Y1200000D01*
X900000Y1700000D02*
X3900000Y1700000D01*
X11100000Y24340000D02*
X11100000Y25030000D01*
X11100000Y3660000D02*
X11100000Y2970000D01*
X16180000Y24340000D02*
X16180000Y25030000D01*
X16180000Y3660000D02*
X16180000Y2970000D01*
X21260000Y24340000D02*
X21260000Y25030000D01*
X21260000Y3660000D02*
X21260000Y2970000D01*
X4689160Y2137705D02*
X4689160Y1490086D01*
X4689160Y1490086D02*
X4727255Y1413896D01*
X4727255Y1413896D02*
X4765350Y1375800D01*
X4765350Y1375800D02*
X4841541Y1337705D01*
X4841541Y1337705D02*
X4993922Y1337705D01*
X4993922Y1337705D02*
X5070112Y1375800D01*
X5070112Y1375800D02*
X5108207Y1413896D01*
X5108207Y1413896D02*
X5146303Y1490086D01*
X5146303Y1490086D02*
X5146303Y2137705D01*
X5489159Y1375800D02*
X5603445Y1337705D01*
X5603445Y1337705D02*
X5793921Y1337705D01*
X5793921Y1337705D02*
X5870112Y1375800D01*
X5870112Y1375800D02*
X5908207Y1413896D01*
X5908207Y1413896D02*
X5946302Y1490086D01*
X5946302Y1490086D02*
X5946302Y1566277D01*
X5946302Y1566277D02*
X5908207Y1642467D01*
X5908207Y1642467D02*
X5870112Y1680562D01*
X5870112Y1680562D02*
X5793921Y1718658D01*
X5793921Y1718658D02*
X5641540Y1756753D01*
X5641540Y1756753D02*
X5565350Y1794848D01*
X5565350Y1794848D02*
X5527255Y1832943D01*
X5527255Y1832943D02*
X5489159Y1909134D01*
X5489159Y1909134D02*
X5489159Y1985324D01*
X5489159Y1985324D02*
X5527255Y2061515D01*
X5527255Y2061515D02*
X5565350Y2099610D01*
X5565350Y2099610D02*
X5641540Y2137705D01*
X5641540Y2137705D02*
X5832017Y2137705D01*
X5832017Y2137705D02*
X5946302Y2099610D01*
X6555826Y1756753D02*
X6670112Y1718658D01*
X6670112Y1718658D02*
X6708207Y1680562D01*
X6708207Y1680562D02*
X6746303Y1604372D01*
X6746303Y1604372D02*
X6746303Y1490086D01*
X6746303Y1490086D02*
X6708207Y1413896D01*
X6708207Y1413896D02*
X6670112Y1375800D01*
X6670112Y1375800D02*
X6593922Y1337705D01*
X6593922Y1337705D02*
X6289160Y1337705D01*
X6289160Y1337705D02*
X6289160Y2137705D01*
X6289160Y2137705D02*
X6555826Y2137705D01*
X6555826Y2137705D02*
X6632017Y2099610D01*
X6632017Y2099610D02*
X6670112Y2061515D01*
X6670112Y2061515D02*
X6708207Y1985324D01*
X6708207Y1985324D02*
X6708207Y1909134D01*
X6708207Y1909134D02*
X6670112Y1832943D01*
X6670112Y1832943D02*
X6632017Y1794848D01*
X6632017Y1794848D02*
X6555826Y1756753D01*
X6555826Y1756753D02*
X6289160Y1756753D01*
X7089160Y1642467D02*
X7698684Y1642467D01*
X8536779Y1413896D02*
X8498683Y1375800D01*
X8498683Y1375800D02*
X8384398Y1337705D01*
X8384398Y1337705D02*
X8308207Y1337705D01*
X8308207Y1337705D02*
X8193921Y1375800D01*
X8193921Y1375800D02*
X8117731Y1451991D01*
X8117731Y1451991D02*
X8079636Y1528181D01*
X8079636Y1528181D02*
X8041540Y1680562D01*
X8041540Y1680562D02*
X8041540Y1794848D01*
X8041540Y1794848D02*
X8079636Y1947229D01*
X8079636Y1947229D02*
X8117731Y2023420D01*
X8117731Y2023420D02*
X8193921Y2099610D01*
X8193921Y2099610D02*
X8308207Y2137705D01*
X8308207Y2137705D02*
X8384398Y2137705D01*
X8384398Y2137705D02*
X8498683Y2099610D01*
X8498683Y2099610D02*
X8536779Y2061515D01*
X509523Y25177705D02*
X1004761Y25177705D01*
X1004761Y25177705D02*
X738095Y24872943D01*
X738095Y24872943D02*
X852380Y24872943D01*
X852380Y24872943D02*
X928571Y24834848D01*
X928571Y24834848D02*
X966666Y24796753D01*
X966666Y24796753D02*
X1004761Y24720562D01*
X1004761Y24720562D02*
X1004761Y24530086D01*
X1004761Y24530086D02*
X966666Y24453896D01*
X966666Y24453896D02*
X928571Y24415800D01*
X928571Y24415800D02*
X852380Y24377705D01*
X852380Y24377705D02*
X623809Y24377705D01*
X623809Y24377705D02*
X547618Y24415800D01*
X547618Y24415800D02*
X509523Y24453896D01*
X1233333Y25177705D02*
X1500000Y24377705D01*
X1500000Y24377705D02*
X1766666Y25177705D01*
X1957142Y25177705D02*
X2452380Y25177705D01*
X2452380Y25177705D02*
X2185714Y24872943D01*
X2185714Y24872943D02*
X2299999Y24872943D01*
X2299999Y24872943D02*
X2376190Y24834848D01*
X2376190Y24834848D02*
X2414285Y24796753D01*
X2414285Y24796753D02*
X2452380Y24720562D01*
X2452380Y24720562D02*
X2452380Y24530086D01*
X2452380Y24530086D02*
X2414285Y24453896D01*
X2414285Y24453896D02*
X2376190Y24415800D01*
X2376190Y24415800D02*
X2299999Y24377705D01*
X2299999Y24377705D02*
X2071428Y24377705D01*
X2071428Y24377705D02*
X1995237Y24415800D01*
X1995237Y24415800D02*
X1957142Y24453896D01*
X3647618Y24415800D02*
X3761904Y24377705D01*
X3761904Y24377705D02*
X3952380Y24377705D01*
X3952380Y24377705D02*
X4028571Y24415800D01*
X4028571Y24415800D02*
X4066666Y24453896D01*
X4066666Y24453896D02*
X4104761Y24530086D01*
X4104761Y24530086D02*
X4104761Y24606277D01*
X4104761Y24606277D02*
X4066666Y24682467D01*
X4066666Y24682467D02*
X4028571Y24720562D01*
X4028571Y24720562D02*
X3952380Y24758658D01*
X3952380Y24758658D02*
X3799999Y24796753D01*
X3799999Y24796753D02*
X3723809Y24834848D01*
X3723809Y24834848D02*
X3685714Y24872943D01*
X3685714Y24872943D02*
X3647618Y24949134D01*
X3647618Y24949134D02*
X3647618Y25025324D01*
X3647618Y25025324D02*
X3685714Y25101515D01*
X3685714Y25101515D02*
X3723809Y25139610D01*
X3723809Y25139610D02*
X3799999Y25177705D01*
X3799999Y25177705D02*
X3990476Y25177705D01*
X3990476Y25177705D02*
X4104761Y25139610D01*
X4904762Y24453896D02*
X4866666Y24415800D01*
X4866666Y24415800D02*
X4752381Y24377705D01*
X4752381Y24377705D02*
X4676190Y24377705D01*
X4676190Y24377705D02*
X4561904Y24415800D01*
X4561904Y24415800D02*
X4485714Y24491991D01*
X4485714Y24491991D02*
X4447619Y24568181D01*
X4447619Y24568181D02*
X4409523Y24720562D01*
X4409523Y24720562D02*
X4409523Y24834848D01*
X4409523Y24834848D02*
X4447619Y24987229D01*
X4447619Y24987229D02*
X4485714Y25063420D01*
X4485714Y25063420D02*
X4561904Y25139610D01*
X4561904Y25139610D02*
X4676190Y25177705D01*
X4676190Y25177705D02*
X4752381Y25177705D01*
X4752381Y25177705D02*
X4866666Y25139610D01*
X4866666Y25139610D02*
X4904762Y25101515D01*
X5628571Y24377705D02*
X5247619Y24377705D01*
X5247619Y24377705D02*
X5247619Y25177705D01*
X6728570Y24415800D02*
X6842856Y24377705D01*
X6842856Y24377705D02*
X7033332Y24377705D01*
X7033332Y24377705D02*
X7109523Y24415800D01*
X7109523Y24415800D02*
X7147618Y24453896D01*
X7147618Y24453896D02*
X7185713Y24530086D01*
X7185713Y24530086D02*
X7185713Y24606277D01*
X7185713Y24606277D02*
X7147618Y24682467D01*
X7147618Y24682467D02*
X7109523Y24720562D01*
X7109523Y24720562D02*
X7033332Y24758658D01*
X7033332Y24758658D02*
X6880951Y24796753D01*
X6880951Y24796753D02*
X6804761Y24834848D01*
X6804761Y24834848D02*
X6766666Y24872943D01*
X6766666Y24872943D02*
X6728570Y24949134D01*
X6728570Y24949134D02*
X6728570Y25025324D01*
X6728570Y25025324D02*
X6766666Y25101515D01*
X6766666Y25101515D02*
X6804761Y25139610D01*
X6804761Y25139610D02*
X6880951Y25177705D01*
X6880951Y25177705D02*
X7071428Y25177705D01*
X7071428Y25177705D02*
X7185713Y25139610D01*
X7528571Y24377705D02*
X7528571Y25177705D01*
X7528571Y25177705D02*
X7719047Y25177705D01*
X7719047Y25177705D02*
X7833333Y25139610D01*
X7833333Y25139610D02*
X7909523Y25063420D01*
X7909523Y25063420D02*
X7947618Y24987229D01*
X7947618Y24987229D02*
X7985714Y24834848D01*
X7985714Y24834848D02*
X7985714Y24720562D01*
X7985714Y24720562D02*
X7947618Y24568181D01*
X7947618Y24568181D02*
X7909523Y24491991D01*
X7909523Y24491991D02*
X7833333Y24415800D01*
X7833333Y24415800D02*
X7719047Y24377705D01*
X7719047Y24377705D02*
X7528571Y24377705D01*
X8290475Y24606277D02*
X8671428Y24606277D01*
X8214285Y24377705D02*
X8480952Y25177705D01*
X8480952Y25177705D02*
X8747618Y24377705D01*
X9919047Y23979610D02*
X9842857Y24017705D01*
X9842857Y24017705D02*
X9728571Y24017705D01*
X9728571Y24017705D02*
X9614285Y23979610D01*
X9614285Y23979610D02*
X9538095Y23903420D01*
X9538095Y23903420D02*
X9500000Y23827229D01*
X9500000Y23827229D02*
X9461904Y23674848D01*
X9461904Y23674848D02*
X9461904Y23560562D01*
X9461904Y23560562D02*
X9500000Y23408181D01*
X9500000Y23408181D02*
X9538095Y23331991D01*
X9538095Y23331991D02*
X9614285Y23255800D01*
X9614285Y23255800D02*
X9728571Y23217705D01*
X9728571Y23217705D02*
X9804762Y23217705D01*
X9804762Y23217705D02*
X9919047Y23255800D01*
X9919047Y23255800D02*
X9957143Y23293896D01*
X9957143Y23293896D02*
X9957143Y23560562D01*
X9957143Y23560562D02*
X9804762Y23560562D01*
X10300000Y23217705D02*
X10300000Y24017705D01*
X10300000Y24017705D02*
X10604762Y24017705D01*
X10604762Y24017705D02*
X10680952Y23979610D01*
X10680952Y23979610D02*
X10719047Y23941515D01*
X10719047Y23941515D02*
X10757143Y23865324D01*
X10757143Y23865324D02*
X10757143Y23751039D01*
X10757143Y23751039D02*
X10719047Y23674848D01*
X10719047Y23674848D02*
X10680952Y23636753D01*
X10680952Y23636753D02*
X10604762Y23598658D01*
X10604762Y23598658D02*
X10300000Y23598658D01*
X11100000Y23217705D02*
X11100000Y24017705D01*
X11633333Y24017705D02*
X11785714Y24017705D01*
X11785714Y24017705D02*
X11861904Y23979610D01*
X11861904Y23979610D02*
X11938095Y23903420D01*
X11938095Y23903420D02*
X11976190Y23751039D01*
X11976190Y23751039D02*
X11976190Y23484372D01*
X11976190Y23484372D02*
X11938095Y23331991D01*
X11938095Y23331991D02*
X11861904Y23255800D01*
X11861904Y23255800D02*
X11785714Y23217705D01*
X11785714Y23217705D02*
X11633333Y23217705D01*
X11633333Y23217705D02*
X11557142Y23255800D01*
X11557142Y23255800D02*
X11480952Y23331991D01*
X11480952Y23331991D02*
X11442856Y23484372D01*
X11442856Y23484372D02*
X11442856Y23751039D01*
X11442856Y23751039D02*
X11480952Y23903420D01*
X11480952Y23903420D02*
X11557142Y23979610D01*
X11557142Y23979610D02*
X11633333Y24017705D01*
X12738094Y23217705D02*
X12280951Y23217705D01*
X12509523Y23217705D02*
X12509523Y24017705D01*
X12509523Y24017705D02*
X12433332Y23903420D01*
X12433332Y23903420D02*
X12357142Y23827229D01*
X12357142Y23827229D02*
X12280951Y23789134D01*
X9919047Y4749610D02*
X9842857Y4787705D01*
X9842857Y4787705D02*
X9728571Y4787705D01*
X9728571Y4787705D02*
X9614285Y4749610D01*
X9614285Y4749610D02*
X9538095Y4673420D01*
X9538095Y4673420D02*
X9500000Y4597229D01*
X9500000Y4597229D02*
X9461904Y4444848D01*
X9461904Y4444848D02*
X9461904Y4330562D01*
X9461904Y4330562D02*
X9500000Y4178181D01*
X9500000Y4178181D02*
X9538095Y4101991D01*
X9538095Y4101991D02*
X9614285Y4025800D01*
X9614285Y4025800D02*
X9728571Y3987705D01*
X9728571Y3987705D02*
X9804762Y3987705D01*
X9804762Y3987705D02*
X9919047Y4025800D01*
X9919047Y4025800D02*
X9957143Y4063896D01*
X9957143Y4063896D02*
X9957143Y4330562D01*
X9957143Y4330562D02*
X9804762Y4330562D01*
X10300000Y3987705D02*
X10300000Y4787705D01*
X10300000Y4787705D02*
X10604762Y4787705D01*
X10604762Y4787705D02*
X10680952Y4749610D01*
X10680952Y4749610D02*
X10719047Y4711515D01*
X10719047Y4711515D02*
X10757143Y4635324D01*
X10757143Y4635324D02*
X10757143Y4521039D01*
X10757143Y4521039D02*
X10719047Y4444848D01*
X10719047Y4444848D02*
X10680952Y4406753D01*
X10680952Y4406753D02*
X10604762Y4368658D01*
X10604762Y4368658D02*
X10300000Y4368658D01*
X11100000Y3987705D02*
X11100000Y4787705D01*
X11633333Y4787705D02*
X11785714Y4787705D01*
X11785714Y4787705D02*
X11861904Y4749610D01*
X11861904Y4749610D02*
X11938095Y4673420D01*
X11938095Y4673420D02*
X11976190Y4521039D01*
X11976190Y4521039D02*
X11976190Y4254372D01*
X11976190Y4254372D02*
X11938095Y4101991D01*
X11938095Y4101991D02*
X11861904Y4025800D01*
X11861904Y4025800D02*
X11785714Y3987705D01*
X11785714Y3987705D02*
X11633333Y3987705D01*
X11633333Y3987705D02*
X11557142Y4025800D01*
X11557142Y4025800D02*
X11480952Y4101991D01*
X11480952Y4101991D02*
X11442856Y4254372D01*
X11442856Y4254372D02*
X11442856Y4521039D01*
X11442856Y4521039D02*
X11480952Y4673420D01*
X11480952Y4673420D02*
X11557142Y4749610D01*
X11557142Y4749610D02*
X11633333Y4787705D01*
X12738094Y3987705D02*
X12280951Y3987705D01*
X12509523Y3987705D02*
X12509523Y4787705D01*
X12509523Y4787705D02*
X12433332Y4673420D01*
X12433332Y4673420D02*
X12357142Y4597229D01*
X12357142Y4597229D02*
X12280951Y4559134D01*
X11849523Y25127705D02*
X12382857Y24327705D01*
X12382857Y25127705D02*
X11849523Y24327705D01*
X12649523Y24365800D02*
X12763809Y24327705D01*
X12763809Y24327705D02*
X12954285Y24327705D01*
X12954285Y24327705D02*
X13030476Y24365800D01*
X13030476Y24365800D02*
X13068571Y24403896D01*
X13068571Y24403896D02*
X13106666Y24480086D01*
X13106666Y24480086D02*
X13106666Y24556277D01*
X13106666Y24556277D02*
X13068571Y24632467D01*
X13068571Y24632467D02*
X13030476Y24670562D01*
X13030476Y24670562D02*
X12954285Y24708658D01*
X12954285Y24708658D02*
X12801904Y24746753D01*
X12801904Y24746753D02*
X12725714Y24784848D01*
X12725714Y24784848D02*
X12687619Y24822943D01*
X12687619Y24822943D02*
X12649523Y24899134D01*
X12649523Y24899134D02*
X12649523Y24975324D01*
X12649523Y24975324D02*
X12687619Y25051515D01*
X12687619Y25051515D02*
X12725714Y25089610D01*
X12725714Y25089610D02*
X12801904Y25127705D01*
X12801904Y25127705D02*
X12992381Y25127705D01*
X12992381Y25127705D02*
X13106666Y25089610D01*
X13449524Y24327705D02*
X13449524Y25127705D01*
X13449524Y24746753D02*
X13906667Y24746753D01*
X13906667Y24327705D02*
X13906667Y25127705D01*
X14287619Y25127705D02*
X14287619Y24480086D01*
X14287619Y24480086D02*
X14325714Y24403896D01*
X14325714Y24403896D02*
X14363809Y24365800D01*
X14363809Y24365800D02*
X14440000Y24327705D01*
X14440000Y24327705D02*
X14592381Y24327705D01*
X14592381Y24327705D02*
X14668571Y24365800D01*
X14668571Y24365800D02*
X14706666Y24403896D01*
X14706666Y24403896D02*
X14744762Y24480086D01*
X14744762Y24480086D02*
X14744762Y25127705D01*
X15011428Y25127705D02*
X15468571Y25127705D01*
X15239999Y24327705D02*
X15239999Y25127705D01*
X11849523Y3677705D02*
X12382857Y2877705D01*
X12382857Y3677705D02*
X11849523Y2877705D01*
X12649523Y2915800D02*
X12763809Y2877705D01*
X12763809Y2877705D02*
X12954285Y2877705D01*
X12954285Y2877705D02*
X13030476Y2915800D01*
X13030476Y2915800D02*
X13068571Y2953896D01*
X13068571Y2953896D02*
X13106666Y3030086D01*
X13106666Y3030086D02*
X13106666Y3106277D01*
X13106666Y3106277D02*
X13068571Y3182467D01*
X13068571Y3182467D02*
X13030476Y3220562D01*
X13030476Y3220562D02*
X12954285Y3258658D01*
X12954285Y3258658D02*
X12801904Y3296753D01*
X12801904Y3296753D02*
X12725714Y3334848D01*
X12725714Y3334848D02*
X12687619Y3372943D01*
X12687619Y3372943D02*
X12649523Y3449134D01*
X12649523Y3449134D02*
X12649523Y3525324D01*
X12649523Y3525324D02*
X12687619Y3601515D01*
X12687619Y3601515D02*
X12725714Y3639610D01*
X12725714Y3639610D02*
X12801904Y3677705D01*
X12801904Y3677705D02*
X12992381Y3677705D01*
X12992381Y3677705D02*
X13106666Y3639610D01*
X13449524Y2877705D02*
X13449524Y3677705D01*
X13449524Y3296753D02*
X13906667Y3296753D01*
X13906667Y2877705D02*
X13906667Y3677705D01*
X14287619Y3677705D02*
X14287619Y3030086D01*
X14287619Y3030086D02*
X14325714Y2953896D01*
X14325714Y2953896D02*
X14363809Y2915800D01*
X14363809Y2915800D02*
X14440000Y2877705D01*
X14440000Y2877705D02*
X14592381Y2877705D01*
X14592381Y2877705D02*
X14668571Y2915800D01*
X14668571Y2915800D02*
X14706666Y2953896D01*
X14706666Y2953896D02*
X14744762Y3030086D01*
X14744762Y3030086D02*
X14744762Y3677705D01*
X15011428Y3677705D02*
X15468571Y3677705D01*
X15239999Y2877705D02*
X15239999Y3677705D01*
X15208571Y23255800D02*
X15322857Y23217705D01*
X15322857Y23217705D02*
X15513333Y23217705D01*
X15513333Y23217705D02*
X15589524Y23255800D01*
X15589524Y23255800D02*
X15627619Y23293896D01*
X15627619Y23293896D02*
X15665714Y23370086D01*
X15665714Y23370086D02*
X15665714Y23446277D01*
X15665714Y23446277D02*
X15627619Y23522467D01*
X15627619Y23522467D02*
X15589524Y23560562D01*
X15589524Y23560562D02*
X15513333Y23598658D01*
X15513333Y23598658D02*
X15360952Y23636753D01*
X15360952Y23636753D02*
X15284762Y23674848D01*
X15284762Y23674848D02*
X15246667Y23712943D01*
X15246667Y23712943D02*
X15208571Y23789134D01*
X15208571Y23789134D02*
X15208571Y23865324D01*
X15208571Y23865324D02*
X15246667Y23941515D01*
X15246667Y23941515D02*
X15284762Y23979610D01*
X15284762Y23979610D02*
X15360952Y24017705D01*
X15360952Y24017705D02*
X15551429Y24017705D01*
X15551429Y24017705D02*
X15665714Y23979610D01*
X16008572Y23217705D02*
X16008572Y24017705D01*
X16008572Y24017705D02*
X16199048Y24017705D01*
X16199048Y24017705D02*
X16313334Y23979610D01*
X16313334Y23979610D02*
X16389524Y23903420D01*
X16389524Y23903420D02*
X16427619Y23827229D01*
X16427619Y23827229D02*
X16465715Y23674848D01*
X16465715Y23674848D02*
X16465715Y23560562D01*
X16465715Y23560562D02*
X16427619Y23408181D01*
X16427619Y23408181D02*
X16389524Y23331991D01*
X16389524Y23331991D02*
X16313334Y23255800D01*
X16313334Y23255800D02*
X16199048Y23217705D01*
X16199048Y23217705D02*
X16008572Y23217705D01*
X16770476Y23446277D02*
X17151429Y23446277D01*
X16694286Y23217705D02*
X16960953Y24017705D01*
X16960953Y24017705D02*
X17227619Y23217705D01*
X15208571Y4025800D02*
X15322857Y3987705D01*
X15322857Y3987705D02*
X15513333Y3987705D01*
X15513333Y3987705D02*
X15589524Y4025800D01*
X15589524Y4025800D02*
X15627619Y4063896D01*
X15627619Y4063896D02*
X15665714Y4140086D01*
X15665714Y4140086D02*
X15665714Y4216277D01*
X15665714Y4216277D02*
X15627619Y4292467D01*
X15627619Y4292467D02*
X15589524Y4330562D01*
X15589524Y4330562D02*
X15513333Y4368658D01*
X15513333Y4368658D02*
X15360952Y4406753D01*
X15360952Y4406753D02*
X15284762Y4444848D01*
X15284762Y4444848D02*
X15246667Y4482943D01*
X15246667Y4482943D02*
X15208571Y4559134D01*
X15208571Y4559134D02*
X15208571Y4635324D01*
X15208571Y4635324D02*
X15246667Y4711515D01*
X15246667Y4711515D02*
X15284762Y4749610D01*
X15284762Y4749610D02*
X15360952Y4787705D01*
X15360952Y4787705D02*
X15551429Y4787705D01*
X15551429Y4787705D02*
X15665714Y4749610D01*
X16008572Y3987705D02*
X16008572Y4787705D01*
X16008572Y4787705D02*
X16199048Y4787705D01*
X16199048Y4787705D02*
X16313334Y4749610D01*
X16313334Y4749610D02*
X16389524Y4673420D01*
X16389524Y4673420D02*
X16427619Y4597229D01*
X16427619Y4597229D02*
X16465715Y4444848D01*
X16465715Y4444848D02*
X16465715Y4330562D01*
X16465715Y4330562D02*
X16427619Y4178181D01*
X16427619Y4178181D02*
X16389524Y4101991D01*
X16389524Y4101991D02*
X16313334Y4025800D01*
X16313334Y4025800D02*
X16199048Y3987705D01*
X16199048Y3987705D02*
X16008572Y3987705D01*
X16770476Y4216277D02*
X17151429Y4216277D01*
X16694286Y3987705D02*
X16960953Y4787705D01*
X16960953Y4787705D02*
X17227619Y3987705D01*
X17767618Y24365800D02*
X17881904Y24327705D01*
X17881904Y24327705D02*
X18072380Y24327705D01*
X18072380Y24327705D02*
X18148571Y24365800D01*
X18148571Y24365800D02*
X18186666Y24403896D01*
X18186666Y24403896D02*
X18224761Y24480086D01*
X18224761Y24480086D02*
X18224761Y24556277D01*
X18224761Y24556277D02*
X18186666Y24632467D01*
X18186666Y24632467D02*
X18148571Y24670562D01*
X18148571Y24670562D02*
X18072380Y24708658D01*
X18072380Y24708658D02*
X17919999Y24746753D01*
X17919999Y24746753D02*
X17843809Y24784848D01*
X17843809Y24784848D02*
X17805714Y24822943D01*
X17805714Y24822943D02*
X17767618Y24899134D01*
X17767618Y24899134D02*
X17767618Y24975324D01*
X17767618Y24975324D02*
X17805714Y25051515D01*
X17805714Y25051515D02*
X17843809Y25089610D01*
X17843809Y25089610D02*
X17919999Y25127705D01*
X17919999Y25127705D02*
X18110476Y25127705D01*
X18110476Y25127705D02*
X18224761Y25089610D01*
X19024762Y24403896D02*
X18986666Y24365800D01*
X18986666Y24365800D02*
X18872381Y24327705D01*
X18872381Y24327705D02*
X18796190Y24327705D01*
X18796190Y24327705D02*
X18681904Y24365800D01*
X18681904Y24365800D02*
X18605714Y24441991D01*
X18605714Y24441991D02*
X18567619Y24518181D01*
X18567619Y24518181D02*
X18529523Y24670562D01*
X18529523Y24670562D02*
X18529523Y24784848D01*
X18529523Y24784848D02*
X18567619Y24937229D01*
X18567619Y24937229D02*
X18605714Y25013420D01*
X18605714Y25013420D02*
X18681904Y25089610D01*
X18681904Y25089610D02*
X18796190Y25127705D01*
X18796190Y25127705D02*
X18872381Y25127705D01*
X18872381Y25127705D02*
X18986666Y25089610D01*
X18986666Y25089610D02*
X19024762Y25051515D01*
X19748571Y24327705D02*
X19367619Y24327705D01*
X19367619Y24327705D02*
X19367619Y25127705D01*
X17767618Y2915800D02*
X17881904Y2877705D01*
X17881904Y2877705D02*
X18072380Y2877705D01*
X18072380Y2877705D02*
X18148571Y2915800D01*
X18148571Y2915800D02*
X18186666Y2953896D01*
X18186666Y2953896D02*
X18224761Y3030086D01*
X18224761Y3030086D02*
X18224761Y3106277D01*
X18224761Y3106277D02*
X18186666Y3182467D01*
X18186666Y3182467D02*
X18148571Y3220562D01*
X18148571Y3220562D02*
X18072380Y3258658D01*
X18072380Y3258658D02*
X17919999Y3296753D01*
X17919999Y3296753D02*
X17843809Y3334848D01*
X17843809Y3334848D02*
X17805714Y3372943D01*
X17805714Y3372943D02*
X17767618Y3449134D01*
X17767618Y3449134D02*
X17767618Y3525324D01*
X17767618Y3525324D02*
X17805714Y3601515D01*
X17805714Y3601515D02*
X17843809Y3639610D01*
X17843809Y3639610D02*
X17919999Y3677705D01*
X17919999Y3677705D02*
X18110476Y3677705D01*
X18110476Y3677705D02*
X18224761Y3639610D01*
X19024762Y2953896D02*
X18986666Y2915800D01*
X18986666Y2915800D02*
X18872381Y2877705D01*
X18872381Y2877705D02*
X18796190Y2877705D01*
X18796190Y2877705D02*
X18681904Y2915800D01*
X18681904Y2915800D02*
X18605714Y2991991D01*
X18605714Y2991991D02*
X18567619Y3068181D01*
X18567619Y3068181D02*
X18529523Y3220562D01*
X18529523Y3220562D02*
X18529523Y3334848D01*
X18529523Y3334848D02*
X18567619Y3487229D01*
X18567619Y3487229D02*
X18605714Y3563420D01*
X18605714Y3563420D02*
X18681904Y3639610D01*
X18681904Y3639610D02*
X18796190Y3677705D01*
X18796190Y3677705D02*
X18872381Y3677705D01*
X18872381Y3677705D02*
X18986666Y3639610D01*
X18986666Y3639610D02*
X19024762Y3601515D01*
X19748571Y2877705D02*
X19367619Y2877705D01*
X19367619Y2877705D02*
X19367619Y3677705D01*
X20650476Y23979610D02*
X20574286Y24017705D01*
X20574286Y24017705D02*
X20460000Y24017705D01*
X20460000Y24017705D02*
X20345714Y23979610D01*
X20345714Y23979610D02*
X20269524Y23903420D01*
X20269524Y23903420D02*
X20231429Y23827229D01*
X20231429Y23827229D02*
X20193333Y23674848D01*
X20193333Y23674848D02*
X20193333Y23560562D01*
X20193333Y23560562D02*
X20231429Y23408181D01*
X20231429Y23408181D02*
X20269524Y23331991D01*
X20269524Y23331991D02*
X20345714Y23255800D01*
X20345714Y23255800D02*
X20460000Y23217705D01*
X20460000Y23217705D02*
X20536191Y23217705D01*
X20536191Y23217705D02*
X20650476Y23255800D01*
X20650476Y23255800D02*
X20688572Y23293896D01*
X20688572Y23293896D02*
X20688572Y23560562D01*
X20688572Y23560562D02*
X20536191Y23560562D01*
X21031429Y23217705D02*
X21031429Y24017705D01*
X21031429Y24017705D02*
X21488572Y23217705D01*
X21488572Y23217705D02*
X21488572Y24017705D01*
X21869524Y23217705D02*
X21869524Y24017705D01*
X21869524Y24017705D02*
X22060000Y24017705D01*
X22060000Y24017705D02*
X22174286Y23979610D01*
X22174286Y23979610D02*
X22250476Y23903420D01*
X22250476Y23903420D02*
X22288571Y23827229D01*
X22288571Y23827229D02*
X22326667Y23674848D01*
X22326667Y23674848D02*
X22326667Y23560562D01*
X22326667Y23560562D02*
X22288571Y23408181D01*
X22288571Y23408181D02*
X22250476Y23331991D01*
X22250476Y23331991D02*
X22174286Y23255800D01*
X22174286Y23255800D02*
X22060000Y23217705D01*
X22060000Y23217705D02*
X21869524Y23217705D01*
X20650476Y4749610D02*
X20574286Y4787705D01*
X20574286Y4787705D02*
X20460000Y4787705D01*
X20460000Y4787705D02*
X20345714Y4749610D01*
X20345714Y4749610D02*
X20269524Y4673420D01*
X20269524Y4673420D02*
X20231429Y4597229D01*
X20231429Y4597229D02*
X20193333Y4444848D01*
X20193333Y4444848D02*
X20193333Y4330562D01*
X20193333Y4330562D02*
X20231429Y4178181D01*
X20231429Y4178181D02*
X20269524Y4101991D01*
X20269524Y4101991D02*
X20345714Y4025800D01*
X20345714Y4025800D02*
X20460000Y3987705D01*
X20460000Y3987705D02*
X20536191Y3987705D01*
X20536191Y3987705D02*
X20650476Y4025800D01*
X20650476Y4025800D02*
X20688572Y4063896D01*
X20688572Y4063896D02*
X20688572Y4330562D01*
X20688572Y4330562D02*
X20536191Y4330562D01*
X21031429Y3987705D02*
X21031429Y4787705D01*
X21031429Y4787705D02*
X21488572Y3987705D01*
X21488572Y3987705D02*
X21488572Y4787705D01*
X21869524Y3987705D02*
X21869524Y4787705D01*
X21869524Y4787705D02*
X22060000Y4787705D01*
X22060000Y4787705D02*
X22174286Y4749610D01*
X22174286Y4749610D02*
X22250476Y4673420D01*
X22250476Y4673420D02*
X22288571Y4597229D01*
X22288571Y4597229D02*
X22326667Y4444848D01*
X22326667Y4444848D02*
X22326667Y4330562D01*
X22326667Y4330562D02*
X22288571Y4178181D01*
X22288571Y4178181D02*
X22250476Y4101991D01*
X22250476Y4101991D02*
X22174286Y4025800D01*
X22174286Y4025800D02*
X22060000Y3987705D01*
X22060000Y3987705D02*
X21869524Y3987705D01*
X22923810Y25127705D02*
X23190477Y24327705D01*
X23190477Y24327705D02*
X23457143Y25127705D01*
X23723810Y24327705D02*
X23723810Y25127705D01*
X24104762Y24327705D02*
X24104762Y25127705D01*
X24104762Y25127705D02*
X24561905Y24327705D01*
X24561905Y24327705D02*
X24561905Y25127705D01*
X22923810Y3677705D02*
X23190477Y2877705D01*
X23190477Y2877705D02*
X23457143Y3677705D01*
X23723810Y2877705D02*
X23723810Y3677705D01*
X24104762Y2877705D02*
X24104762Y3677705D01*
X24104762Y3677705D02*
X24561905Y2877705D01*
X24561905Y2877705D02*
X24561905Y3677705D01*
X26352380Y25177705D02*
X26885714Y24377705D01*
X26885714Y25177705D02*
X26352380Y24377705D01*
X27152380Y24415800D02*
X27266666Y24377705D01*
X27266666Y24377705D02*
X27457142Y24377705D01*
X27457142Y24377705D02*
X27533333Y24415800D01*
X27533333Y24415800D02*
X27571428Y24453896D01*
X27571428Y24453896D02*
X27609523Y24530086D01*
X27609523Y24530086D02*
X27609523Y24606277D01*
X27609523Y24606277D02*
X27571428Y24682467D01*
X27571428Y24682467D02*
X27533333Y24720562D01*
X27533333Y24720562D02*
X27457142Y24758658D01*
X27457142Y24758658D02*
X27304761Y24796753D01*
X27304761Y24796753D02*
X27228571Y24834848D01*
X27228571Y24834848D02*
X27190476Y24872943D01*
X27190476Y24872943D02*
X27152380Y24949134D01*
X27152380Y24949134D02*
X27152380Y25025324D01*
X27152380Y25025324D02*
X27190476Y25101515D01*
X27190476Y25101515D02*
X27228571Y25139610D01*
X27228571Y25139610D02*
X27304761Y25177705D01*
X27304761Y25177705D02*
X27495238Y25177705D01*
X27495238Y25177705D02*
X27609523Y25139610D01*
X28409524Y24377705D02*
X28142857Y24758658D01*
X27952381Y24377705D02*
X27952381Y25177705D01*
X27952381Y25177705D02*
X28257143Y25177705D01*
X28257143Y25177705D02*
X28333333Y25139610D01*
X28333333Y25139610D02*
X28371428Y25101515D01*
X28371428Y25101515D02*
X28409524Y25025324D01*
X28409524Y25025324D02*
X28409524Y24911039D01*
X28409524Y24911039D02*
X28371428Y24834848D01*
X28371428Y24834848D02*
X28333333Y24796753D01*
X28333333Y24796753D02*
X28257143Y24758658D01*
X28257143Y24758658D02*
X27952381Y24758658D01*
X26428571Y3627705D02*
X26961905Y2827705D01*
X26961905Y3627705D02*
X26428571Y2827705D01*
X27228571Y2865800D02*
X27342857Y2827705D01*
X27342857Y2827705D02*
X27533333Y2827705D01*
X27533333Y2827705D02*
X27609524Y2865800D01*
X27609524Y2865800D02*
X27647619Y2903896D01*
X27647619Y2903896D02*
X27685714Y2980086D01*
X27685714Y2980086D02*
X27685714Y3056277D01*
X27685714Y3056277D02*
X27647619Y3132467D01*
X27647619Y3132467D02*
X27609524Y3170562D01*
X27609524Y3170562D02*
X27533333Y3208658D01*
X27533333Y3208658D02*
X27380952Y3246753D01*
X27380952Y3246753D02*
X27304762Y3284848D01*
X27304762Y3284848D02*
X27266667Y3322943D01*
X27266667Y3322943D02*
X27228571Y3399134D01*
X27228571Y3399134D02*
X27228571Y3475324D01*
X27228571Y3475324D02*
X27266667Y3551515D01*
X27266667Y3551515D02*
X27304762Y3589610D01*
X27304762Y3589610D02*
X27380952Y3627705D01*
X27380952Y3627705D02*
X27571429Y3627705D01*
X27571429Y3627705D02*
X27685714Y3589610D01*
X28409524Y2827705D02*
X28028572Y2827705D01*
X28028572Y2827705D02*
X28028572Y3627705D01*
X31047619Y24177705D02*
X30666667Y24177705D01*
X30666667Y24177705D02*
X30628571Y23796753D01*
X30628571Y23796753D02*
X30666667Y23834848D01*
X30666667Y23834848D02*
X30742857Y23872943D01*
X30742857Y23872943D02*
X30933333Y23872943D01*
X30933333Y23872943D02*
X31009524Y23834848D01*
X31009524Y23834848D02*
X31047619Y23796753D01*
X31047619Y23796753D02*
X31085714Y23720562D01*
X31085714Y23720562D02*
X31085714Y23530086D01*
X31085714Y23530086D02*
X31047619Y23453896D01*
X31047619Y23453896D02*
X31009524Y23415800D01*
X31009524Y23415800D02*
X30933333Y23377705D01*
X30933333Y23377705D02*
X30742857Y23377705D01*
X30742857Y23377705D02*
X30666667Y23415800D01*
X30666667Y23415800D02*
X30628571Y23453896D01*
X31314286Y24177705D02*
X31580953Y23377705D01*
X31580953Y23377705D02*
X31847619Y24177705D01*
X30209523Y18627705D02*
X30704761Y18627705D01*
X30704761Y18627705D02*
X30438095Y18322943D01*
X30438095Y18322943D02*
X30552380Y18322943D01*
X30552380Y18322943D02*
X30628571Y18284848D01*
X30628571Y18284848D02*
X30666666Y18246753D01*
X30666666Y18246753D02*
X30704761Y18170562D01*
X30704761Y18170562D02*
X30704761Y17980086D01*
X30704761Y17980086D02*
X30666666Y17903896D01*
X30666666Y17903896D02*
X30628571Y17865800D01*
X30628571Y17865800D02*
X30552380Y17827705D01*
X30552380Y17827705D02*
X30323809Y17827705D01*
X30323809Y17827705D02*
X30247618Y17865800D01*
X30247618Y17865800D02*
X30209523Y17903896D01*
X30933333Y18627705D02*
X31200000Y17827705D01*
X31200000Y17827705D02*
X31466666Y18627705D01*
X31657142Y18627705D02*
X32152380Y18627705D01*
X32152380Y18627705D02*
X31885714Y18322943D01*
X31885714Y18322943D02*
X31999999Y18322943D01*
X31999999Y18322943D02*
X32076190Y18284848D01*
X32076190Y18284848D02*
X32114285Y18246753D01*
X32114285Y18246753D02*
X32152380Y18170562D01*
X32152380Y18170562D02*
X32152380Y17980086D01*
X32152380Y17980086D02*
X32114285Y17903896D01*
X32114285Y17903896D02*
X32076190Y17865800D01*
X32076190Y17865800D02*
X31999999Y17827705D01*
X31999999Y17827705D02*
X31771428Y17827705D01*
X31771428Y17827705D02*
X31695237Y17865800D01*
X31695237Y17865800D02*
X31657142Y17903896D01*
X30209523Y10177706D02*
X30704761Y10177706D01*
X30704761Y10177706D02*
X30438095Y9872944D01*
X30438095Y9872944D02*
X30552380Y9872944D01*
X30552380Y9872944D02*
X30628571Y9834849D01*
X30628571Y9834849D02*
X30666666Y9796754D01*
X30666666Y9796754D02*
X30704761Y9720563D01*
X30704761Y9720563D02*
X30704761Y9530087D01*
X30704761Y9530087D02*
X30666666Y9453897D01*
X30666666Y9453897D02*
X30628571Y9415801D01*
X30628571Y9415801D02*
X30552380Y9377706D01*
X30552380Y9377706D02*
X30323809Y9377706D01*
X30323809Y9377706D02*
X30247618Y9415801D01*
X30247618Y9415801D02*
X30209523Y9453897D01*
X30933333Y10177706D02*
X31200000Y9377706D01*
X31200000Y9377706D02*
X31466666Y10177706D01*
X31657142Y10177706D02*
X32152380Y10177706D01*
X32152380Y10177706D02*
X31885714Y9872944D01*
X31885714Y9872944D02*
X31999999Y9872944D01*
X31999999Y9872944D02*
X32076190Y9834849D01*
X32076190Y9834849D02*
X32114285Y9796754D01*
X32114285Y9796754D02*
X32152380Y9720563D01*
X32152380Y9720563D02*
X32152380Y9530087D01*
X32152380Y9530087D02*
X32114285Y9453897D01*
X32114285Y9453897D02*
X32076190Y9415801D01*
X32076190Y9415801D02*
X31999999Y9377706D01*
X31999999Y9377706D02*
X31771428Y9377706D01*
X31771428Y9377706D02*
X31695237Y9415801D01*
X31695237Y9415801D02*
X31657142Y9453897D01*
X31047619Y4627705D02*
X30666667Y4627705D01*
X30666667Y4627705D02*
X30628571Y4246753D01*
X30628571Y4246753D02*
X30666667Y4284848D01*
X30666667Y4284848D02*
X30742857Y4322943D01*
X30742857Y4322943D02*
X30933333Y4322943D01*
X30933333Y4322943D02*
X31009524Y4284848D01*
X31009524Y4284848D02*
X31047619Y4246753D01*
X31047619Y4246753D02*
X31085714Y4170562D01*
X31085714Y4170562D02*
X31085714Y3980086D01*
X31085714Y3980086D02*
X31047619Y3903896D01*
X31047619Y3903896D02*
X31009524Y3865800D01*
X31009524Y3865800D02*
X30933333Y3827705D01*
X30933333Y3827705D02*
X30742857Y3827705D01*
X30742857Y3827705D02*
X30666667Y3865800D01*
X30666667Y3865800D02*
X30628571Y3903896D01*
X31314286Y4627705D02*
X31580953Y3827705D01*
X31580953Y3827705D02*
X31847619Y4627705D01*
X34395238Y23842467D02*
X35004762Y23842467D01*
X34700000Y23537705D02*
X34700000Y24147229D01*
X34395238Y4042467D02*
X35004762Y4042467D01*
X34700000Y3737705D02*
X34700000Y4347229D01*
X36935238Y23842467D02*
X37544762Y23842467D01*
X36935238Y4042467D02*
X37544762Y4042467D01*
X3429886Y24017705D02*
X3429886Y23446277D01*
X3429886Y23446277D02*
X3391791Y23331991D01*
X3391791Y23331991D02*
X3315600Y23255800D01*
X3315600Y23255800D02*
X3201315Y23217705D01*
X3201315Y23217705D02*
X3125124Y23217705D01*
X3772743Y23941515D02*
X3810839Y23979610D01*
X3810839Y23979610D02*
X3887029Y24017705D01*
X3887029Y24017705D02*
X4077505Y24017705D01*
X4077505Y24017705D02*
X4153696Y23979610D01*
X4153696Y23979610D02*
X4191791Y23941515D01*
X4191791Y23941515D02*
X4229886Y23865324D01*
X4229886Y23865324D02*
X4229886Y23789134D01*
X4229886Y23789134D02*
X4191791Y23674848D01*
X4191791Y23674848D02*
X3734648Y23217705D01*
X3734648Y23217705D02*
X4229886Y23217705D01*
X5067982Y24017705D02*
X5525125Y24017705D01*
X5296553Y23217705D02*
X5296553Y24017705D01*
X5906077Y23217705D02*
X5829887Y23255800D01*
X5829887Y23255800D02*
X5791792Y23293896D01*
X5791792Y23293896D02*
X5753696Y23370086D01*
X5753696Y23370086D02*
X5753696Y23598658D01*
X5753696Y23598658D02*
X5791792Y23674848D01*
X5791792Y23674848D02*
X5829887Y23712943D01*
X5829887Y23712943D02*
X5906077Y23751039D01*
X5906077Y23751039D02*
X6020363Y23751039D01*
X6020363Y23751039D02*
X6096554Y23712943D01*
X6096554Y23712943D02*
X6134649Y23674848D01*
X6134649Y23674848D02*
X6172744Y23598658D01*
X6172744Y23598658D02*
X6172744Y23370086D01*
X6172744Y23370086D02*
X6134649Y23293896D01*
X6134649Y23293896D02*
X6096554Y23255800D01*
X6096554Y23255800D02*
X6020363Y23217705D01*
X6020363Y23217705D02*
X5906077Y23217705D01*
X6782268Y23636753D02*
X6515602Y23636753D01*
X6515602Y23217705D02*
X6515602Y24017705D01*
X6515602Y24017705D02*
X6896554Y24017705D01*
X7201316Y23522467D02*
X7810840Y23522467D01*
X8648935Y23217705D02*
X8382268Y23598658D01*
X8191792Y23217705D02*
X8191792Y24017705D01*
X8191792Y24017705D02*
X8496554Y24017705D01*
X8496554Y24017705D02*
X8572744Y23979610D01*
X8572744Y23979610D02*
X8610839Y23941515D01*
X8610839Y23941515D02*
X8648935Y23865324D01*
X8648935Y23865324D02*
X8648935Y23751039D01*
X8648935Y23751039D02*
X8610839Y23674848D01*
X8610839Y23674848D02*
X8572744Y23636753D01*
X8572744Y23636753D02*
X8496554Y23598658D01*
X8496554Y23598658D02*
X8191792Y23598658D01*
X3582267Y4787705D02*
X3582267Y4216277D01*
X3582267Y4216277D02*
X3544172Y4101991D01*
X3544172Y4101991D02*
X3467981Y4025800D01*
X3467981Y4025800D02*
X3353696Y3987705D01*
X3353696Y3987705D02*
X3277505Y3987705D01*
X4382267Y3987705D02*
X3925124Y3987705D01*
X4153696Y3987705D02*
X4153696Y4787705D01*
X4153696Y4787705D02*
X4077505Y4673420D01*
X4077505Y4673420D02*
X4001315Y4597229D01*
X4001315Y4597229D02*
X3925124Y4559134D01*
X5220363Y4787705D02*
X5677506Y4787705D01*
X5448934Y3987705D02*
X5448934Y4787705D01*
X6058458Y3987705D02*
X5982268Y4025800D01*
X5982268Y4025800D02*
X5944173Y4063896D01*
X5944173Y4063896D02*
X5906077Y4140086D01*
X5906077Y4140086D02*
X5906077Y4368658D01*
X5906077Y4368658D02*
X5944173Y4444848D01*
X5944173Y4444848D02*
X5982268Y4482943D01*
X5982268Y4482943D02*
X6058458Y4521039D01*
X6058458Y4521039D02*
X6172744Y4521039D01*
X6172744Y4521039D02*
X6248935Y4482943D01*
X6248935Y4482943D02*
X6287030Y4444848D01*
X6287030Y4444848D02*
X6325125Y4368658D01*
X6325125Y4368658D02*
X6325125Y4140086D01*
X6325125Y4140086D02*
X6287030Y4063896D01*
X6287030Y4063896D02*
X6248935Y4025800D01*
X6248935Y4025800D02*
X6172744Y3987705D01*
X6172744Y3987705D02*
X6058458Y3987705D01*
X6934649Y4406753D02*
X6667983Y4406753D01*
X6667983Y3987705D02*
X6667983Y4787705D01*
X6667983Y4787705D02*
X7048935Y4787705D01*
X7353697Y4292467D02*
X7963221Y4292467D01*
X8725125Y3987705D02*
X8344173Y3987705D01*
X8344173Y3987705D02*
X8344173Y4787705D01*
X28813221Y16237705D02*
X28813221Y17037705D01*
X29575125Y16237705D02*
X29194173Y16237705D01*
X29194173Y16237705D02*
X29194173Y17037705D01*
X30298935Y16237705D02*
X30032268Y16618658D01*
X29841792Y16237705D02*
X29841792Y17037705D01*
X29841792Y17037705D02*
X30146554Y17037705D01*
X30146554Y17037705D02*
X30222744Y16999610D01*
X30222744Y16999610D02*
X30260839Y16961515D01*
X30260839Y16961515D02*
X30298935Y16885324D01*
X30298935Y16885324D02*
X30298935Y16771039D01*
X30298935Y16771039D02*
X30260839Y16694848D01*
X30260839Y16694848D02*
X30222744Y16656753D01*
X30222744Y16656753D02*
X30146554Y16618658D01*
X30146554Y16618658D02*
X29841792Y16618658D01*
X28622744Y14399610D02*
X28546554Y14437705D01*
X28546554Y14437705D02*
X28432268Y14437705D01*
X28432268Y14437705D02*
X28317982Y14399610D01*
X28317982Y14399610D02*
X28241792Y14323420D01*
X28241792Y14323420D02*
X28203697Y14247229D01*
X28203697Y14247229D02*
X28165601Y14094848D01*
X28165601Y14094848D02*
X28165601Y13980562D01*
X28165601Y13980562D02*
X28203697Y13828181D01*
X28203697Y13828181D02*
X28241792Y13751991D01*
X28241792Y13751991D02*
X28317982Y13675800D01*
X28317982Y13675800D02*
X28432268Y13637705D01*
X28432268Y13637705D02*
X28508459Y13637705D01*
X28508459Y13637705D02*
X28622744Y13675800D01*
X28622744Y13675800D02*
X28660840Y13713896D01*
X28660840Y13713896D02*
X28660840Y13980562D01*
X28660840Y13980562D02*
X28508459Y13980562D01*
X29003697Y13637705D02*
X29003697Y14437705D01*
X29003697Y14437705D02*
X29460840Y13637705D01*
X29460840Y13637705D02*
X29460840Y14437705D01*
X29841792Y13637705D02*
X29841792Y14437705D01*
X29841792Y14437705D02*
X30032268Y14437705D01*
X30032268Y14437705D02*
X30146554Y14399610D01*
X30146554Y14399610D02*
X30222744Y14323420D01*
X30222744Y14323420D02*
X30260839Y14247229D01*
X30260839Y14247229D02*
X30298935Y14094848D01*
X30298935Y14094848D02*
X30298935Y13980562D01*
X30298935Y13980562D02*
X30260839Y13828181D01*
X30260839Y13828181D02*
X30222744Y13751991D01*
X30222744Y13751991D02*
X30146554Y13675800D01*
X30146554Y13675800D02*
X30032268Y13637705D01*
X30032268Y13637705D02*
X29841792Y13637705D01*
X28965602Y11037705D02*
X28965602Y11837705D01*
X29727506Y11037705D02*
X29346554Y11037705D01*
X29346554Y11037705D02*
X29346554Y11837705D01*
X30375125Y11037705D02*
X29994173Y11037705D01*
X29994173Y11037705D02*
X29994173Y11837705D01*
D11*
X41464285Y21916472D02*
X40964285Y22630758D01*
X40607142Y21916472D02*
X40607142Y23416472D01*
X40607142Y23416472D02*
X41178571Y23416472D01*
X41178571Y23416472D02*
X41321428Y23345043D01*
X41321428Y23345043D02*
X41392857Y23273615D01*
X41392857Y23273615D02*
X41464285Y23130758D01*
X41464285Y23130758D02*
X41464285Y22916472D01*
X41464285Y22916472D02*
X41392857Y22773615D01*
X41392857Y22773615D02*
X41321428Y22702186D01*
X41321428Y22702186D02*
X41178571Y22630758D01*
X41178571Y22630758D02*
X40607142Y22630758D01*
X41464285Y4716472D02*
X40749999Y4716472D01*
X40749999Y4716472D02*
X40749999Y6216472D01*
%TO.C,R7*%
D10*
X8037500Y12662742D02*
X8037500Y13137258D01*
X9082500Y12662742D02*
X9082500Y13137258D01*
%TO.C,R9*%
X34877500Y7237258D02*
X34877500Y6762742D01*
X35922500Y7237258D02*
X35922500Y6762742D01*
%TO.C,R8*%
X10577500Y12662742D02*
X10577500Y13137258D01*
X11622500Y12662742D02*
X11622500Y13137258D01*
%TO.C,C1*%
X10365000Y18561252D02*
X10365000Y18038748D01*
X11835000Y18561252D02*
X11835000Y18038748D01*
%TO.C,Q2*%
X35640000Y19160000D02*
X37160000Y19160000D01*
X35640000Y19110000D02*
X35640000Y19160000D01*
X35640000Y17210000D02*
X35640000Y17990000D01*
X35640000Y16040000D02*
X35640000Y16090000D01*
X37160000Y19160000D02*
X37160000Y18160000D01*
X37160000Y17040000D02*
X37160000Y16040000D01*
X37160000Y16040000D02*
X35640000Y16040000D01*
X35340000Y17650000D02*
X34860000Y17650000D01*
X35100000Y17980000D01*
X35340000Y17650000D01*
G36*
X35340000Y17650000D02*
G01*
X34860000Y17650000D01*
X35100000Y17980000D01*
X35340000Y17650000D01*
G37*
%TO.C,SJ1*%
X29700000Y8500000D02*
X29700000Y7900000D01*
X30000000Y8200000D02*
X29700000Y8500000D01*
X30000000Y8200000D02*
X29700000Y7900000D01*
X30200000Y5600000D02*
X30200000Y8400000D01*
X30900000Y9050000D02*
X31500000Y9050000D01*
X31500000Y4950000D02*
X30900000Y4950000D01*
X32200000Y8400000D02*
X32200000Y5600000D01*
X30200000Y8350000D02*
G75*
G02*
X30900000Y9050000I699999J1D01*
G01*
X30900000Y4950000D02*
G75*
G02*
X30200000Y5650000I0J700000D01*
G01*
X31500000Y9050000D02*
G75*
G02*
X32200000Y8350000I1J-699999D01*
G01*
X32200000Y5650000D02*
G75*
G02*
X31500000Y4950000I-700000J0D01*
G01*
%TO.C,SJ2*%
X30200000Y19600000D02*
X30200000Y22400000D01*
X30900000Y23050000D02*
X31500000Y23050000D01*
X31500000Y18950000D02*
X30900000Y18950000D01*
X32200000Y22400000D02*
X32200000Y19600000D01*
X32400000Y19800000D02*
X32700000Y20100000D01*
X32400000Y19800000D02*
X32700000Y19500000D01*
X32700000Y19500000D02*
X32700000Y20100000D01*
X30200000Y22350000D02*
G75*
G02*
X30900000Y23050000I700000J0D01*
G01*
X30900000Y18950000D02*
G75*
G02*
X30200000Y19650000I-1J699999D01*
G01*
X31500000Y23050000D02*
G75*
G02*
X32200000Y22350000I0J-700000D01*
G01*
X32200000Y19650000D02*
G75*
G02*
X31500000Y18950000I-699999J-1D01*
G01*
%TO.C,R11*%
X2957499Y9837258D02*
X2957499Y9362742D01*
X4002499Y9837258D02*
X4002499Y9362742D01*
%TO.C,R6*%
X10577500Y9362742D02*
X10577500Y9837258D01*
X11622500Y9362742D02*
X11622500Y9837258D01*
%TO.C,R13*%
X13117500Y9837258D02*
X13117500Y9362742D01*
X14162500Y9837258D02*
X14162500Y9362742D01*
%TO.C,J4*%
X33320000Y24920000D02*
X33320000Y26300000D01*
X34700000Y24920000D02*
X33320000Y24920000D01*
X35970000Y27680000D02*
X38620000Y27680000D01*
X35970000Y24920000D02*
X35970000Y27680000D01*
X35970000Y24920000D02*
X38620000Y24920000D01*
X38620000Y24920000D02*
X38620000Y27680000D01*
%TO.C,C3*%
X18210000Y9740580D02*
X18210000Y9459420D01*
X19230000Y9740580D02*
X19230000Y9459420D01*
%TO.C,C2*%
X18210000Y18740580D02*
X18210000Y18459420D01*
X19230000Y18740580D02*
X19230000Y18459420D01*
%TO.C,R5*%
X8037500Y9362742D02*
X8037500Y9837258D01*
X9082500Y9362742D02*
X9082500Y9837258D01*
%TO.C,D2*%
X38750000Y20600000D02*
X38750000Y18600000D01*
X38750000Y20600000D02*
X43250000Y20600000D01*
X38750000Y18600000D02*
X43250000Y18600000D01*
%TO.C,U1*%
X600000Y22900000D02*
X21600000Y22900000D01*
X21600000Y5100000D01*
X600000Y5100000D01*
X600000Y22900000D01*
%TO.C,R2*%
X26362742Y20222500D02*
X26837258Y20222500D01*
X26362742Y19177500D02*
X26837258Y19177500D01*
%TO.C,Q1*%
X35640000Y11960000D02*
X37160000Y11960000D01*
X35640000Y11910000D02*
X35640000Y11960000D01*
X35640000Y10010000D02*
X35640000Y10790000D01*
X35640000Y8840000D02*
X35640000Y8890000D01*
X37160000Y11960000D02*
X37160000Y10960000D01*
X37160000Y9840000D02*
X37160000Y8840000D01*
X37160000Y8840000D02*
X35640000Y8840000D01*
X35340000Y10450000D02*
X34860000Y10450000D01*
X35100000Y10780000D01*
X35340000Y10450000D01*
G36*
X35340000Y10450000D02*
G01*
X34860000Y10450000D01*
X35100000Y10780000D01*
X35340000Y10450000D01*
G37*
%TO.C,R10*%
X34877500Y20762742D02*
X34877500Y21237258D01*
X35922500Y20762742D02*
X35922500Y21237258D01*
%TO.C,R3*%
X2672935Y14860000D02*
X5727063Y14860000D01*
X2672935Y12140000D02*
X5727063Y12140000D01*
%TO.C,R16*%
X13117500Y18837258D02*
X13117500Y18362742D01*
X14162500Y18837258D02*
X14162500Y18362742D01*
%TO.C,R12*%
X5497500Y9837258D02*
X5497500Y9362742D01*
X6542500Y9837258D02*
X6542500Y9362742D01*
%TO.C,D1*%
X38750000Y9400000D02*
X38750000Y7400000D01*
X38750000Y9400000D02*
X43250000Y9400000D01*
X38750000Y7400000D02*
X43250000Y7400000D01*
%TO.C,R14*%
X15657500Y9837258D02*
X15657500Y9362742D01*
X16702500Y9837258D02*
X16702500Y9362742D01*
%TO.C,J3*%
X33320000Y320000D02*
X33320000Y1700000D01*
X34700000Y320000D02*
X33320000Y320000D01*
X35970000Y3080000D02*
X38620000Y3080000D01*
X35970000Y320000D02*
X35970000Y3080000D01*
X35970000Y320000D02*
X38620000Y320000D01*
X38620000Y320000D02*
X38620000Y3080000D01*
%TO.C,R15*%
X15657500Y18837258D02*
X15657500Y18362742D01*
X16702500Y18837258D02*
X16702500Y18362742D01*
%TO.C,R4*%
X2672935Y19260000D02*
X5727063Y19260000D01*
X2672935Y16540000D02*
X5727063Y16540000D01*
%TO.C,R1*%
X26362742Y8822500D02*
X26837258Y8822500D01*
X26362742Y7777500D02*
X26837258Y7777500D01*
%TD*%
%LPC*%
%TO.C,SJ1*%
G36*
X30450000Y7750000D02*
G01*
X31950000Y7750000D01*
X31950000Y6250000D01*
X30450000Y6250000D01*
X30450000Y7750000D01*
G37*
%TO.C,SJ2*%
G36*
X30450000Y21750000D02*
G01*
X31950000Y21750000D01*
X31950000Y20250000D01*
X30450000Y20250000D01*
X30450000Y21750000D01*
G37*
%TD*%
D12*
%TO.C,R7*%
X8560000Y12075000D03*
X8560000Y13725000D03*
%TD*%
D13*
%TO.C,R9*%
X35400000Y7825000D03*
X35400000Y6175000D03*
%TD*%
D12*
%TO.C,R8*%
X11100000Y12075000D03*
X11100000Y13725000D03*
%TD*%
D14*
%TO.C,C1*%
X11100000Y19250000D03*
X11100000Y17350000D03*
%TD*%
D15*
%TO.C,Q2*%
X35462500Y18550000D03*
X35462500Y16650000D03*
X37337500Y17600000D03*
%TD*%
D16*
%TO.C,SJ1*%
X31200000Y8300000D03*
D17*
X31200000Y7000000D03*
D18*
X31200000Y5700000D03*
%TD*%
D19*
%TO.C,SJ2*%
X31200000Y19700000D03*
D17*
X31200000Y21000000D03*
D20*
X31200000Y22300000D03*
%TD*%
D13*
%TO.C,R11*%
X3479999Y10425000D03*
X3479999Y8775000D03*
%TD*%
D21*
%TO.C,J1*%
X23800000Y1450000D03*
D22*
X21260000Y1450000D03*
X18720000Y1450000D03*
X16180000Y1450000D03*
X13640000Y1450000D03*
X11100000Y1450000D03*
%TD*%
D12*
%TO.C,R6*%
X11100000Y8775000D03*
X11100000Y10425000D03*
%TD*%
D23*
%TO.C,TP7*%
X31800000Y11400000D03*
%TD*%
%TO.C,TP6*%
X27400000Y26200000D03*
%TD*%
%TO.C,TP1*%
X1500000Y26200000D03*
%TD*%
D13*
%TO.C,R13*%
X13640000Y10425000D03*
X13640000Y8775000D03*
%TD*%
D21*
%TO.C,J4*%
X34700000Y26300000D03*
D22*
X37240000Y26300000D03*
%TD*%
D24*
%TO.C,C3*%
X18720000Y10375000D03*
X18720000Y8825000D03*
%TD*%
D23*
%TO.C,TP3*%
X4600000Y26200000D03*
%TD*%
D24*
%TO.C,C2*%
X18720000Y19375000D03*
X18720000Y17825000D03*
%TD*%
D23*
%TO.C,TP8*%
X31800000Y16600000D03*
%TD*%
D12*
%TO.C,R5*%
X8560000Y8775000D03*
X8560000Y10425000D03*
%TD*%
D25*
%TO.C,D2*%
X39300000Y19600000D03*
D26*
X42700000Y19600000D03*
%TD*%
D27*
%TO.C,U1*%
X3480000Y6380000D03*
D28*
X6020000Y6380000D03*
X8560000Y6380000D03*
X11100000Y6380000D03*
X13640000Y6380000D03*
X16180000Y6380000D03*
X18720000Y6380000D03*
X18720000Y21620000D03*
X16180000Y21620000D03*
X13640000Y21620000D03*
X11100000Y21620000D03*
X8560000Y21620000D03*
X6020000Y21620000D03*
X3480000Y21620000D03*
%TD*%
D29*
%TO.C,R2*%
X25775000Y19700000D03*
X27425000Y19700000D03*
%TD*%
D15*
%TO.C,Q1*%
X35462500Y11350000D03*
X35462500Y9450000D03*
X37337500Y10400000D03*
%TD*%
D12*
%TO.C,R10*%
X35400000Y20175000D03*
X35400000Y21825000D03*
%TD*%
D30*
%TO.C,R3*%
X1887499Y13500000D03*
X6512499Y13500000D03*
%TD*%
D21*
%TO.C,J2*%
X23800000Y26550000D03*
D22*
X21260000Y26550000D03*
X18720000Y26550000D03*
X16180000Y26550000D03*
X13640000Y26550000D03*
X11100000Y26550000D03*
%TD*%
D31*
%TO.C,H2*%
X41900000Y2100000D03*
%TD*%
D13*
%TO.C,R16*%
X13640000Y19425000D03*
X13640000Y17775000D03*
%TD*%
D23*
%TO.C,TP4*%
X7699999Y26200000D03*
%TD*%
D13*
%TO.C,R12*%
X6020000Y10425000D03*
X6020000Y8775000D03*
%TD*%
D25*
%TO.C,D1*%
X39300000Y8400000D03*
D26*
X42700000Y8400000D03*
%TD*%
D13*
%TO.C,R14*%
X16180000Y10425000D03*
X16180000Y8775000D03*
%TD*%
D21*
%TO.C,J3*%
X34700000Y1700000D03*
D22*
X37240000Y1700000D03*
%TD*%
D13*
%TO.C,R15*%
X16180000Y19425000D03*
X16180000Y17775000D03*
%TD*%
D31*
%TO.C,H1*%
X41900000Y25900000D03*
%TD*%
D30*
%TO.C,R4*%
X1887499Y17900000D03*
X6512499Y17900000D03*
%TD*%
D23*
%TO.C,TP5*%
X27400000Y1800000D03*
%TD*%
%TO.C,TP2*%
X31800000Y14000000D03*
%TD*%
D29*
%TO.C,R1*%
X25775000Y8300000D03*
X27425000Y8300000D03*
%TD*%
%LPD*%
M02*
