%TF.GenerationSoftware,KiCad,Pcbnew,10.0.1*%
%TF.CreationDate,2026-10-02T14:17:41+09:00*%
%TF.ProjectId,head-sensor-board,68656164-2d73-4656-9e73-6f722d626f61,rev?*%
%TF.SameCoordinates,Original*%
%TF.FileFunction,Legend,Top*%
%TF.FilePolarity,Positive*%
%FSLAX46Y46*%
G04 Gerber Fmt 4.6, Leading zero omitted, Abs format (unit mm)*
G04 Created by KiCad (PCBNEW 10.0.1) date 2026-10-02 14:17:41*
%MOMM*%
%LPD*%
G01*
G04 APERTURE LIST*
G04 Aperture macros list*
%AMRoundRect*
0 Rectangle with rounded corners*
0 $1 Rounding radius*
0 $2 $3 $4 $5 $6 $7 $8 $9 X,Y pos of 4 corners*
0 Add a 4 corners polygon primitive as box body*
4,1,4,$2,$3,$4,$5,$6,$7,$8,$9,$2,$3,0*
0 Add four circle primitives for the rounded corners*
1,1,$1+$1,$2,$3*
1,1,$1+$1,$4,$5*
1,1,$1+$1,$6,$7*
1,1,$1+$1,$8,$9*
0 Add four rect primitives between the rounded corners*
20,1,$1+$1,$2,$3,$4,$5,0*
20,1,$1+$1,$4,$5,$6,$7,0*
20,1,$1+$1,$6,$7,$8,$9,0*
20,1,$1+$1,$8,$9,$2,$3,0*%
%AMFreePoly0*
4,1,23,0.550000,-0.750000,0.000000,-0.750000,0.000000,-0.745722,-0.065263,-0.745722,-0.191342,-0.711940,-0.304381,-0.646677,-0.396677,-0.554381,-0.461940,-0.441342,-0.495722,-0.315263,-0.495722,-0.250000,-0.500000,-0.250000,-0.500000,0.250000,-0.495722,0.250000,-0.495722,0.315263,-0.461940,0.441342,-0.396677,0.554381,-0.304381,0.646677,-0.191342,0.711940,-0.065263,0.745722,0.000000,0.745722,
0.000000,0.750000,0.550000,0.750000,0.550000,-0.750000,0.550000,-0.750000,$1*%
%AMFreePoly1*
4,1,23,0.000000,0.745722,0.065263,0.745722,0.191342,0.711940,0.304381,0.646677,0.396677,0.554381,0.461940,0.441342,0.495722,0.315263,0.495722,0.250000,0.500000,0.250000,0.500000,-0.250000,0.495722,-0.250000,0.495722,-0.315263,0.461940,-0.441342,0.396677,-0.554381,0.304381,-0.646677,0.191342,-0.711940,0.065263,-0.745722,0.000000,-0.745722,0.000000,-0.750000,-0.550000,-0.750000,
-0.550000,0.750000,0.000000,0.750000,0.000000,0.745722,0.000000,0.745722,$1*%
%AMFreePoly2*
4,1,9,0.300000,0.430000,1.960000,0.430000,1.960000,-0.430000,0.300000,-0.430000,0.300000,-0.775000,-0.300000,-0.775000,-0.300000,0.775000,0.300000,0.775000,0.300000,0.430000,0.300000,0.430000,$1*%
%AMFreePoly3*
4,1,9,0.300000,-0.775000,-0.300000,-0.775000,-0.300000,-0.430000,-0.940000,-0.430000,-0.940000,0.430000,-0.300000,0.430000,-0.300000,0.775000,0.300000,0.775000,0.300000,-0.775000,0.300000,-0.775000,$1*%
G04 Aperture macros list end*
%ADD10C,0.120000*%
%ADD11C,0.200000*%
%ADD12RoundRect,0.250000X-0.362500X-1.075000X0.362500X-1.075000X0.362500X1.075000X-0.362500X1.075000X0*%
%ADD13C,2.200000*%
%ADD14RoundRect,0.200000X-0.275000X0.200000X-0.275000X-0.200000X0.275000X-0.200000X0.275000X0.200000X0*%
%ADD15RoundRect,0.200000X0.275000X-0.200000X0.275000X0.200000X-0.275000X0.200000X-0.275000X-0.200000X0*%
%ADD16C,1.500000*%
%ADD17RoundRect,0.200000X-0.200000X-0.275000X0.200000X-0.275000X0.200000X0.275000X-0.200000X0.275000X0*%
%ADD18RoundRect,0.150000X-0.587500X-0.150000X0.587500X-0.150000X0.587500X0.150000X-0.587500X0.150000X0*%
%ADD19RoundRect,0.225000X-0.250000X0.225000X-0.250000X-0.225000X0.250000X-0.225000X0.250000X0.225000X0*%
%ADD20RoundRect,0.250000X-0.475000X0.250000X-0.475000X-0.250000X0.475000X-0.250000X0.475000X0.250000X0*%
%ADD21FreePoly0,90.000000*%
%ADD22R,1.500000X1.000000*%
%ADD23FreePoly1,90.000000*%
%ADD24FreePoly0,270.000000*%
%ADD25FreePoly1,270.000000*%
%ADD26FreePoly2,0.000000*%
%ADD27FreePoly3,0.000000*%
%ADD28R,1.800000X1.800000*%
%ADD29C,1.800000*%
%ADD30R,1.700000X1.700000*%
%ADD31C,1.700000*%
G04 APERTURE END LIST*
D10*
X900000Y1700000D02*
X1699999Y2200000D01*
X900000Y1700000D02*
X1699999Y1200000D01*
X900000Y1700000D02*
X3900000Y1700000D01*
X11100000Y24260000D02*
X11100000Y25030000D01*
X11100000Y3740000D02*
X11100000Y2970000D01*
X16180000Y24260000D02*
X16180000Y25030000D01*
X16180000Y3740000D02*
X16180000Y2970000D01*
X21260000Y24260000D02*
X21260000Y25030000D01*
X21260000Y3740000D02*
X21260000Y2970000D01*
X4669423Y2136145D02*
X4669423Y1488526D01*
X4669423Y1488526D02*
X4707518Y1412336D01*
X4707518Y1412336D02*
X4745613Y1374240D01*
X4745613Y1374240D02*
X4821804Y1336145D01*
X4821804Y1336145D02*
X4974185Y1336145D01*
X4974185Y1336145D02*
X5050375Y1374240D01*
X5050375Y1374240D02*
X5088470Y1412336D01*
X5088470Y1412336D02*
X5126566Y1488526D01*
X5126566Y1488526D02*
X5126566Y2136145D01*
X5469422Y1374240D02*
X5583708Y1336145D01*
X5583708Y1336145D02*
X5774184Y1336145D01*
X5774184Y1336145D02*
X5850375Y1374240D01*
X5850375Y1374240D02*
X5888470Y1412336D01*
X5888470Y1412336D02*
X5926565Y1488526D01*
X5926565Y1488526D02*
X5926565Y1564717D01*
X5926565Y1564717D02*
X5888470Y1640907D01*
X5888470Y1640907D02*
X5850375Y1679002D01*
X5850375Y1679002D02*
X5774184Y1717098D01*
X5774184Y1717098D02*
X5621803Y1755193D01*
X5621803Y1755193D02*
X5545613Y1793288D01*
X5545613Y1793288D02*
X5507518Y1831383D01*
X5507518Y1831383D02*
X5469422Y1907574D01*
X5469422Y1907574D02*
X5469422Y1983764D01*
X5469422Y1983764D02*
X5507518Y2059955D01*
X5507518Y2059955D02*
X5545613Y2098050D01*
X5545613Y2098050D02*
X5621803Y2136145D01*
X5621803Y2136145D02*
X5812280Y2136145D01*
X5812280Y2136145D02*
X5926565Y2098050D01*
X6536089Y1755193D02*
X6650375Y1717098D01*
X6650375Y1717098D02*
X6688470Y1679002D01*
X6688470Y1679002D02*
X6726566Y1602812D01*
X6726566Y1602812D02*
X6726566Y1488526D01*
X6726566Y1488526D02*
X6688470Y1412336D01*
X6688470Y1412336D02*
X6650375Y1374240D01*
X6650375Y1374240D02*
X6574185Y1336145D01*
X6574185Y1336145D02*
X6269423Y1336145D01*
X6269423Y1336145D02*
X6269423Y2136145D01*
X6269423Y2136145D02*
X6536089Y2136145D01*
X6536089Y2136145D02*
X6612280Y2098050D01*
X6612280Y2098050D02*
X6650375Y2059955D01*
X6650375Y2059955D02*
X6688470Y1983764D01*
X6688470Y1983764D02*
X6688470Y1907574D01*
X6688470Y1907574D02*
X6650375Y1831383D01*
X6650375Y1831383D02*
X6612280Y1793288D01*
X6612280Y1793288D02*
X6536089Y1755193D01*
X6536089Y1755193D02*
X6269423Y1755193D01*
X7069423Y1640907D02*
X7678947Y1640907D01*
X8517042Y1412336D02*
X8478946Y1374240D01*
X8478946Y1374240D02*
X8364661Y1336145D01*
X8364661Y1336145D02*
X8288470Y1336145D01*
X8288470Y1336145D02*
X8174184Y1374240D01*
X8174184Y1374240D02*
X8097994Y1450431D01*
X8097994Y1450431D02*
X8059899Y1526621D01*
X8059899Y1526621D02*
X8021803Y1679002D01*
X8021803Y1679002D02*
X8021803Y1793288D01*
X8021803Y1793288D02*
X8059899Y1945669D01*
X8059899Y1945669D02*
X8097994Y2021860D01*
X8097994Y2021860D02*
X8174184Y2098050D01*
X8174184Y2098050D02*
X8288470Y2136145D01*
X8288470Y2136145D02*
X8364661Y2136145D01*
X8364661Y2136145D02*
X8478946Y2098050D01*
X8478946Y2098050D02*
X8517042Y2059955D01*
X509523Y25236145D02*
X1004761Y25236145D01*
X1004761Y25236145D02*
X738095Y24931383D01*
X738095Y24931383D02*
X852380Y24931383D01*
X852380Y24931383D02*
X928571Y24893288D01*
X928571Y24893288D02*
X966666Y24855193D01*
X966666Y24855193D02*
X1004761Y24779002D01*
X1004761Y24779002D02*
X1004761Y24588526D01*
X1004761Y24588526D02*
X966666Y24512336D01*
X966666Y24512336D02*
X928571Y24474240D01*
X928571Y24474240D02*
X852380Y24436145D01*
X852380Y24436145D02*
X623809Y24436145D01*
X623809Y24436145D02*
X547618Y24474240D01*
X547618Y24474240D02*
X509523Y24512336D01*
X1233333Y25236145D02*
X1500000Y24436145D01*
X1500000Y24436145D02*
X1766666Y25236145D01*
X1957142Y25236145D02*
X2452380Y25236145D01*
X2452380Y25236145D02*
X2185714Y24931383D01*
X2185714Y24931383D02*
X2299999Y24931383D01*
X2299999Y24931383D02*
X2376190Y24893288D01*
X2376190Y24893288D02*
X2414285Y24855193D01*
X2414285Y24855193D02*
X2452380Y24779002D01*
X2452380Y24779002D02*
X2452380Y24588526D01*
X2452380Y24588526D02*
X2414285Y24512336D01*
X2414285Y24512336D02*
X2376190Y24474240D01*
X2376190Y24474240D02*
X2299999Y24436145D01*
X2299999Y24436145D02*
X2071428Y24436145D01*
X2071428Y24436145D02*
X1995237Y24474240D01*
X1995237Y24474240D02*
X1957142Y24512336D01*
X3647618Y24474240D02*
X3761904Y24436145D01*
X3761904Y24436145D02*
X3952380Y24436145D01*
X3952380Y24436145D02*
X4028571Y24474240D01*
X4028571Y24474240D02*
X4066666Y24512336D01*
X4066666Y24512336D02*
X4104761Y24588526D01*
X4104761Y24588526D02*
X4104761Y24664717D01*
X4104761Y24664717D02*
X4066666Y24740907D01*
X4066666Y24740907D02*
X4028571Y24779002D01*
X4028571Y24779002D02*
X3952380Y24817098D01*
X3952380Y24817098D02*
X3799999Y24855193D01*
X3799999Y24855193D02*
X3723809Y24893288D01*
X3723809Y24893288D02*
X3685714Y24931383D01*
X3685714Y24931383D02*
X3647618Y25007574D01*
X3647618Y25007574D02*
X3647618Y25083764D01*
X3647618Y25083764D02*
X3685714Y25159955D01*
X3685714Y25159955D02*
X3723809Y25198050D01*
X3723809Y25198050D02*
X3799999Y25236145D01*
X3799999Y25236145D02*
X3990476Y25236145D01*
X3990476Y25236145D02*
X4104761Y25198050D01*
X4904762Y24512336D02*
X4866666Y24474240D01*
X4866666Y24474240D02*
X4752381Y24436145D01*
X4752381Y24436145D02*
X4676190Y24436145D01*
X4676190Y24436145D02*
X4561904Y24474240D01*
X4561904Y24474240D02*
X4485714Y24550431D01*
X4485714Y24550431D02*
X4447619Y24626621D01*
X4447619Y24626621D02*
X4409523Y24779002D01*
X4409523Y24779002D02*
X4409523Y24893288D01*
X4409523Y24893288D02*
X4447619Y25045669D01*
X4447619Y25045669D02*
X4485714Y25121860D01*
X4485714Y25121860D02*
X4561904Y25198050D01*
X4561904Y25198050D02*
X4676190Y25236145D01*
X4676190Y25236145D02*
X4752381Y25236145D01*
X4752381Y25236145D02*
X4866666Y25198050D01*
X4866666Y25198050D02*
X4904762Y25159955D01*
X5628571Y24436145D02*
X5247619Y24436145D01*
X5247619Y24436145D02*
X5247619Y25236145D01*
X6728570Y24474240D02*
X6842856Y24436145D01*
X6842856Y24436145D02*
X7033332Y24436145D01*
X7033332Y24436145D02*
X7109523Y24474240D01*
X7109523Y24474240D02*
X7147618Y24512336D01*
X7147618Y24512336D02*
X7185713Y24588526D01*
X7185713Y24588526D02*
X7185713Y24664717D01*
X7185713Y24664717D02*
X7147618Y24740907D01*
X7147618Y24740907D02*
X7109523Y24779002D01*
X7109523Y24779002D02*
X7033332Y24817098D01*
X7033332Y24817098D02*
X6880951Y24855193D01*
X6880951Y24855193D02*
X6804761Y24893288D01*
X6804761Y24893288D02*
X6766666Y24931383D01*
X6766666Y24931383D02*
X6728570Y25007574D01*
X6728570Y25007574D02*
X6728570Y25083764D01*
X6728570Y25083764D02*
X6766666Y25159955D01*
X6766666Y25159955D02*
X6804761Y25198050D01*
X6804761Y25198050D02*
X6880951Y25236145D01*
X6880951Y25236145D02*
X7071428Y25236145D01*
X7071428Y25236145D02*
X7185713Y25198050D01*
X7528571Y24436145D02*
X7528571Y25236145D01*
X7528571Y25236145D02*
X7719047Y25236145D01*
X7719047Y25236145D02*
X7833333Y25198050D01*
X7833333Y25198050D02*
X7909523Y25121860D01*
X7909523Y25121860D02*
X7947618Y25045669D01*
X7947618Y25045669D02*
X7985714Y24893288D01*
X7985714Y24893288D02*
X7985714Y24779002D01*
X7985714Y24779002D02*
X7947618Y24626621D01*
X7947618Y24626621D02*
X7909523Y24550431D01*
X7909523Y24550431D02*
X7833333Y24474240D01*
X7833333Y24474240D02*
X7719047Y24436145D01*
X7719047Y24436145D02*
X7528571Y24436145D01*
X8290475Y24664717D02*
X8671428Y24664717D01*
X8214285Y24436145D02*
X8480952Y25236145D01*
X8480952Y25236145D02*
X8747618Y24436145D01*
X9919047Y23958050D02*
X9842857Y23996145D01*
X9842857Y23996145D02*
X9728571Y23996145D01*
X9728571Y23996145D02*
X9614285Y23958050D01*
X9614285Y23958050D02*
X9538095Y23881860D01*
X9538095Y23881860D02*
X9500000Y23805669D01*
X9500000Y23805669D02*
X9461904Y23653288D01*
X9461904Y23653288D02*
X9461904Y23539002D01*
X9461904Y23539002D02*
X9500000Y23386621D01*
X9500000Y23386621D02*
X9538095Y23310431D01*
X9538095Y23310431D02*
X9614285Y23234240D01*
X9614285Y23234240D02*
X9728571Y23196145D01*
X9728571Y23196145D02*
X9804762Y23196145D01*
X9804762Y23196145D02*
X9919047Y23234240D01*
X9919047Y23234240D02*
X9957143Y23272336D01*
X9957143Y23272336D02*
X9957143Y23539002D01*
X9957143Y23539002D02*
X9804762Y23539002D01*
X10300000Y23196145D02*
X10300000Y23996145D01*
X10300000Y23996145D02*
X10604762Y23996145D01*
X10604762Y23996145D02*
X10680952Y23958050D01*
X10680952Y23958050D02*
X10719047Y23919955D01*
X10719047Y23919955D02*
X10757143Y23843764D01*
X10757143Y23843764D02*
X10757143Y23729479D01*
X10757143Y23729479D02*
X10719047Y23653288D01*
X10719047Y23653288D02*
X10680952Y23615193D01*
X10680952Y23615193D02*
X10604762Y23577098D01*
X10604762Y23577098D02*
X10300000Y23577098D01*
X11100000Y23196145D02*
X11100000Y23996145D01*
X11633333Y23996145D02*
X11785714Y23996145D01*
X11785714Y23996145D02*
X11861904Y23958050D01*
X11861904Y23958050D02*
X11938095Y23881860D01*
X11938095Y23881860D02*
X11976190Y23729479D01*
X11976190Y23729479D02*
X11976190Y23462812D01*
X11976190Y23462812D02*
X11938095Y23310431D01*
X11938095Y23310431D02*
X11861904Y23234240D01*
X11861904Y23234240D02*
X11785714Y23196145D01*
X11785714Y23196145D02*
X11633333Y23196145D01*
X11633333Y23196145D02*
X11557142Y23234240D01*
X11557142Y23234240D02*
X11480952Y23310431D01*
X11480952Y23310431D02*
X11442856Y23462812D01*
X11442856Y23462812D02*
X11442856Y23729479D01*
X11442856Y23729479D02*
X11480952Y23881860D01*
X11480952Y23881860D02*
X11557142Y23958050D01*
X11557142Y23958050D02*
X11633333Y23996145D01*
X12738094Y23196145D02*
X12280951Y23196145D01*
X12509523Y23196145D02*
X12509523Y23996145D01*
X12509523Y23996145D02*
X12433332Y23881860D01*
X12433332Y23881860D02*
X12357142Y23805669D01*
X12357142Y23805669D02*
X12280951Y23767574D01*
X9919047Y4758050D02*
X9842857Y4796145D01*
X9842857Y4796145D02*
X9728571Y4796145D01*
X9728571Y4796145D02*
X9614285Y4758050D01*
X9614285Y4758050D02*
X9538095Y4681860D01*
X9538095Y4681860D02*
X9500000Y4605669D01*
X9500000Y4605669D02*
X9461904Y4453288D01*
X9461904Y4453288D02*
X9461904Y4339002D01*
X9461904Y4339002D02*
X9500000Y4186621D01*
X9500000Y4186621D02*
X9538095Y4110431D01*
X9538095Y4110431D02*
X9614285Y4034240D01*
X9614285Y4034240D02*
X9728571Y3996145D01*
X9728571Y3996145D02*
X9804762Y3996145D01*
X9804762Y3996145D02*
X9919047Y4034240D01*
X9919047Y4034240D02*
X9957143Y4072336D01*
X9957143Y4072336D02*
X9957143Y4339002D01*
X9957143Y4339002D02*
X9804762Y4339002D01*
X10300000Y3996145D02*
X10300000Y4796145D01*
X10300000Y4796145D02*
X10604762Y4796145D01*
X10604762Y4796145D02*
X10680952Y4758050D01*
X10680952Y4758050D02*
X10719047Y4719955D01*
X10719047Y4719955D02*
X10757143Y4643764D01*
X10757143Y4643764D02*
X10757143Y4529479D01*
X10757143Y4529479D02*
X10719047Y4453288D01*
X10719047Y4453288D02*
X10680952Y4415193D01*
X10680952Y4415193D02*
X10604762Y4377098D01*
X10604762Y4377098D02*
X10300000Y4377098D01*
X11100000Y3996145D02*
X11100000Y4796145D01*
X11633333Y4796145D02*
X11785714Y4796145D01*
X11785714Y4796145D02*
X11861904Y4758050D01*
X11861904Y4758050D02*
X11938095Y4681860D01*
X11938095Y4681860D02*
X11976190Y4529479D01*
X11976190Y4529479D02*
X11976190Y4262812D01*
X11976190Y4262812D02*
X11938095Y4110431D01*
X11938095Y4110431D02*
X11861904Y4034240D01*
X11861904Y4034240D02*
X11785714Y3996145D01*
X11785714Y3996145D02*
X11633333Y3996145D01*
X11633333Y3996145D02*
X11557142Y4034240D01*
X11557142Y4034240D02*
X11480952Y4110431D01*
X11480952Y4110431D02*
X11442856Y4262812D01*
X11442856Y4262812D02*
X11442856Y4529479D01*
X11442856Y4529479D02*
X11480952Y4681860D01*
X11480952Y4681860D02*
X11557142Y4758050D01*
X11557142Y4758050D02*
X11633333Y4796145D01*
X12738094Y3996145D02*
X12280951Y3996145D01*
X12509523Y3996145D02*
X12509523Y4796145D01*
X12509523Y4796145D02*
X12433332Y4681860D01*
X12433332Y4681860D02*
X12357142Y4605669D01*
X12357142Y4605669D02*
X12280951Y4567574D01*
X11849523Y25066145D02*
X12382857Y24266145D01*
X12382857Y25066145D02*
X11849523Y24266145D01*
X12649523Y24304240D02*
X12763809Y24266145D01*
X12763809Y24266145D02*
X12954285Y24266145D01*
X12954285Y24266145D02*
X13030476Y24304240D01*
X13030476Y24304240D02*
X13068571Y24342336D01*
X13068571Y24342336D02*
X13106666Y24418526D01*
X13106666Y24418526D02*
X13106666Y24494717D01*
X13106666Y24494717D02*
X13068571Y24570907D01*
X13068571Y24570907D02*
X13030476Y24609002D01*
X13030476Y24609002D02*
X12954285Y24647098D01*
X12954285Y24647098D02*
X12801904Y24685193D01*
X12801904Y24685193D02*
X12725714Y24723288D01*
X12725714Y24723288D02*
X12687619Y24761383D01*
X12687619Y24761383D02*
X12649523Y24837574D01*
X12649523Y24837574D02*
X12649523Y24913764D01*
X12649523Y24913764D02*
X12687619Y24989955D01*
X12687619Y24989955D02*
X12725714Y25028050D01*
X12725714Y25028050D02*
X12801904Y25066145D01*
X12801904Y25066145D02*
X12992381Y25066145D01*
X12992381Y25066145D02*
X13106666Y25028050D01*
X13449524Y24266145D02*
X13449524Y25066145D01*
X13449524Y24685193D02*
X13906667Y24685193D01*
X13906667Y24266145D02*
X13906667Y25066145D01*
X14287619Y25066145D02*
X14287619Y24418526D01*
X14287619Y24418526D02*
X14325714Y24342336D01*
X14325714Y24342336D02*
X14363809Y24304240D01*
X14363809Y24304240D02*
X14440000Y24266145D01*
X14440000Y24266145D02*
X14592381Y24266145D01*
X14592381Y24266145D02*
X14668571Y24304240D01*
X14668571Y24304240D02*
X14706666Y24342336D01*
X14706666Y24342336D02*
X14744762Y24418526D01*
X14744762Y24418526D02*
X14744762Y25066145D01*
X15011428Y25066145D02*
X15468571Y25066145D01*
X15239999Y24266145D02*
X15239999Y25066145D01*
X11849523Y3726145D02*
X12382857Y2926145D01*
X12382857Y3726145D02*
X11849523Y2926145D01*
X12649523Y2964240D02*
X12763809Y2926145D01*
X12763809Y2926145D02*
X12954285Y2926145D01*
X12954285Y2926145D02*
X13030476Y2964240D01*
X13030476Y2964240D02*
X13068571Y3002336D01*
X13068571Y3002336D02*
X13106666Y3078526D01*
X13106666Y3078526D02*
X13106666Y3154717D01*
X13106666Y3154717D02*
X13068571Y3230907D01*
X13068571Y3230907D02*
X13030476Y3269002D01*
X13030476Y3269002D02*
X12954285Y3307098D01*
X12954285Y3307098D02*
X12801904Y3345193D01*
X12801904Y3345193D02*
X12725714Y3383288D01*
X12725714Y3383288D02*
X12687619Y3421383D01*
X12687619Y3421383D02*
X12649523Y3497574D01*
X12649523Y3497574D02*
X12649523Y3573764D01*
X12649523Y3573764D02*
X12687619Y3649955D01*
X12687619Y3649955D02*
X12725714Y3688050D01*
X12725714Y3688050D02*
X12801904Y3726145D01*
X12801904Y3726145D02*
X12992381Y3726145D01*
X12992381Y3726145D02*
X13106666Y3688050D01*
X13449524Y2926145D02*
X13449524Y3726145D01*
X13449524Y3345193D02*
X13906667Y3345193D01*
X13906667Y2926145D02*
X13906667Y3726145D01*
X14287619Y3726145D02*
X14287619Y3078526D01*
X14287619Y3078526D02*
X14325714Y3002336D01*
X14325714Y3002336D02*
X14363809Y2964240D01*
X14363809Y2964240D02*
X14440000Y2926145D01*
X14440000Y2926145D02*
X14592381Y2926145D01*
X14592381Y2926145D02*
X14668571Y2964240D01*
X14668571Y2964240D02*
X14706666Y3002336D01*
X14706666Y3002336D02*
X14744762Y3078526D01*
X14744762Y3078526D02*
X14744762Y3726145D01*
X15011428Y3726145D02*
X15468571Y3726145D01*
X15239999Y2926145D02*
X15239999Y3726145D01*
X15208571Y23234240D02*
X15322857Y23196145D01*
X15322857Y23196145D02*
X15513333Y23196145D01*
X15513333Y23196145D02*
X15589524Y23234240D01*
X15589524Y23234240D02*
X15627619Y23272336D01*
X15627619Y23272336D02*
X15665714Y23348526D01*
X15665714Y23348526D02*
X15665714Y23424717D01*
X15665714Y23424717D02*
X15627619Y23500907D01*
X15627619Y23500907D02*
X15589524Y23539002D01*
X15589524Y23539002D02*
X15513333Y23577098D01*
X15513333Y23577098D02*
X15360952Y23615193D01*
X15360952Y23615193D02*
X15284762Y23653288D01*
X15284762Y23653288D02*
X15246667Y23691383D01*
X15246667Y23691383D02*
X15208571Y23767574D01*
X15208571Y23767574D02*
X15208571Y23843764D01*
X15208571Y23843764D02*
X15246667Y23919955D01*
X15246667Y23919955D02*
X15284762Y23958050D01*
X15284762Y23958050D02*
X15360952Y23996145D01*
X15360952Y23996145D02*
X15551429Y23996145D01*
X15551429Y23996145D02*
X15665714Y23958050D01*
X16008572Y23196145D02*
X16008572Y23996145D01*
X16008572Y23996145D02*
X16199048Y23996145D01*
X16199048Y23996145D02*
X16313334Y23958050D01*
X16313334Y23958050D02*
X16389524Y23881860D01*
X16389524Y23881860D02*
X16427619Y23805669D01*
X16427619Y23805669D02*
X16465715Y23653288D01*
X16465715Y23653288D02*
X16465715Y23539002D01*
X16465715Y23539002D02*
X16427619Y23386621D01*
X16427619Y23386621D02*
X16389524Y23310431D01*
X16389524Y23310431D02*
X16313334Y23234240D01*
X16313334Y23234240D02*
X16199048Y23196145D01*
X16199048Y23196145D02*
X16008572Y23196145D01*
X16770476Y23424717D02*
X17151429Y23424717D01*
X16694286Y23196145D02*
X16960953Y23996145D01*
X16960953Y23996145D02*
X17227619Y23196145D01*
X15208571Y4034240D02*
X15322857Y3996145D01*
X15322857Y3996145D02*
X15513333Y3996145D01*
X15513333Y3996145D02*
X15589524Y4034240D01*
X15589524Y4034240D02*
X15627619Y4072336D01*
X15627619Y4072336D02*
X15665714Y4148526D01*
X15665714Y4148526D02*
X15665714Y4224717D01*
X15665714Y4224717D02*
X15627619Y4300907D01*
X15627619Y4300907D02*
X15589524Y4339002D01*
X15589524Y4339002D02*
X15513333Y4377098D01*
X15513333Y4377098D02*
X15360952Y4415193D01*
X15360952Y4415193D02*
X15284762Y4453288D01*
X15284762Y4453288D02*
X15246667Y4491383D01*
X15246667Y4491383D02*
X15208571Y4567574D01*
X15208571Y4567574D02*
X15208571Y4643764D01*
X15208571Y4643764D02*
X15246667Y4719955D01*
X15246667Y4719955D02*
X15284762Y4758050D01*
X15284762Y4758050D02*
X15360952Y4796145D01*
X15360952Y4796145D02*
X15551429Y4796145D01*
X15551429Y4796145D02*
X15665714Y4758050D01*
X16008572Y3996145D02*
X16008572Y4796145D01*
X16008572Y4796145D02*
X16199048Y4796145D01*
X16199048Y4796145D02*
X16313334Y4758050D01*
X16313334Y4758050D02*
X16389524Y4681860D01*
X16389524Y4681860D02*
X16427619Y4605669D01*
X16427619Y4605669D02*
X16465715Y4453288D01*
X16465715Y4453288D02*
X16465715Y4339002D01*
X16465715Y4339002D02*
X16427619Y4186621D01*
X16427619Y4186621D02*
X16389524Y4110431D01*
X16389524Y4110431D02*
X16313334Y4034240D01*
X16313334Y4034240D02*
X16199048Y3996145D01*
X16199048Y3996145D02*
X16008572Y3996145D01*
X16770476Y4224717D02*
X17151429Y4224717D01*
X16694286Y3996145D02*
X16960953Y4796145D01*
X16960953Y4796145D02*
X17227619Y3996145D01*
X17767618Y24304240D02*
X17881904Y24266145D01*
X17881904Y24266145D02*
X18072380Y24266145D01*
X18072380Y24266145D02*
X18148571Y24304240D01*
X18148571Y24304240D02*
X18186666Y24342336D01*
X18186666Y24342336D02*
X18224761Y24418526D01*
X18224761Y24418526D02*
X18224761Y24494717D01*
X18224761Y24494717D02*
X18186666Y24570907D01*
X18186666Y24570907D02*
X18148571Y24609002D01*
X18148571Y24609002D02*
X18072380Y24647098D01*
X18072380Y24647098D02*
X17919999Y24685193D01*
X17919999Y24685193D02*
X17843809Y24723288D01*
X17843809Y24723288D02*
X17805714Y24761383D01*
X17805714Y24761383D02*
X17767618Y24837574D01*
X17767618Y24837574D02*
X17767618Y24913764D01*
X17767618Y24913764D02*
X17805714Y24989955D01*
X17805714Y24989955D02*
X17843809Y25028050D01*
X17843809Y25028050D02*
X17919999Y25066145D01*
X17919999Y25066145D02*
X18110476Y25066145D01*
X18110476Y25066145D02*
X18224761Y25028050D01*
X19024762Y24342336D02*
X18986666Y24304240D01*
X18986666Y24304240D02*
X18872381Y24266145D01*
X18872381Y24266145D02*
X18796190Y24266145D01*
X18796190Y24266145D02*
X18681904Y24304240D01*
X18681904Y24304240D02*
X18605714Y24380431D01*
X18605714Y24380431D02*
X18567619Y24456621D01*
X18567619Y24456621D02*
X18529523Y24609002D01*
X18529523Y24609002D02*
X18529523Y24723288D01*
X18529523Y24723288D02*
X18567619Y24875669D01*
X18567619Y24875669D02*
X18605714Y24951860D01*
X18605714Y24951860D02*
X18681904Y25028050D01*
X18681904Y25028050D02*
X18796190Y25066145D01*
X18796190Y25066145D02*
X18872381Y25066145D01*
X18872381Y25066145D02*
X18986666Y25028050D01*
X18986666Y25028050D02*
X19024762Y24989955D01*
X19748571Y24266145D02*
X19367619Y24266145D01*
X19367619Y24266145D02*
X19367619Y25066145D01*
X17767618Y2964240D02*
X17881904Y2926145D01*
X17881904Y2926145D02*
X18072380Y2926145D01*
X18072380Y2926145D02*
X18148571Y2964240D01*
X18148571Y2964240D02*
X18186666Y3002336D01*
X18186666Y3002336D02*
X18224761Y3078526D01*
X18224761Y3078526D02*
X18224761Y3154717D01*
X18224761Y3154717D02*
X18186666Y3230907D01*
X18186666Y3230907D02*
X18148571Y3269002D01*
X18148571Y3269002D02*
X18072380Y3307098D01*
X18072380Y3307098D02*
X17919999Y3345193D01*
X17919999Y3345193D02*
X17843809Y3383288D01*
X17843809Y3383288D02*
X17805714Y3421383D01*
X17805714Y3421383D02*
X17767618Y3497574D01*
X17767618Y3497574D02*
X17767618Y3573764D01*
X17767618Y3573764D02*
X17805714Y3649955D01*
X17805714Y3649955D02*
X17843809Y3688050D01*
X17843809Y3688050D02*
X17919999Y3726145D01*
X17919999Y3726145D02*
X18110476Y3726145D01*
X18110476Y3726145D02*
X18224761Y3688050D01*
X19024762Y3002336D02*
X18986666Y2964240D01*
X18986666Y2964240D02*
X18872381Y2926145D01*
X18872381Y2926145D02*
X18796190Y2926145D01*
X18796190Y2926145D02*
X18681904Y2964240D01*
X18681904Y2964240D02*
X18605714Y3040431D01*
X18605714Y3040431D02*
X18567619Y3116621D01*
X18567619Y3116621D02*
X18529523Y3269002D01*
X18529523Y3269002D02*
X18529523Y3383288D01*
X18529523Y3383288D02*
X18567619Y3535669D01*
X18567619Y3535669D02*
X18605714Y3611860D01*
X18605714Y3611860D02*
X18681904Y3688050D01*
X18681904Y3688050D02*
X18796190Y3726145D01*
X18796190Y3726145D02*
X18872381Y3726145D01*
X18872381Y3726145D02*
X18986666Y3688050D01*
X18986666Y3688050D02*
X19024762Y3649955D01*
X19748571Y2926145D02*
X19367619Y2926145D01*
X19367619Y2926145D02*
X19367619Y3726145D01*
X20650476Y23958050D02*
X20574286Y23996145D01*
X20574286Y23996145D02*
X20460000Y23996145D01*
X20460000Y23996145D02*
X20345714Y23958050D01*
X20345714Y23958050D02*
X20269524Y23881860D01*
X20269524Y23881860D02*
X20231429Y23805669D01*
X20231429Y23805669D02*
X20193333Y23653288D01*
X20193333Y23653288D02*
X20193333Y23539002D01*
X20193333Y23539002D02*
X20231429Y23386621D01*
X20231429Y23386621D02*
X20269524Y23310431D01*
X20269524Y23310431D02*
X20345714Y23234240D01*
X20345714Y23234240D02*
X20460000Y23196145D01*
X20460000Y23196145D02*
X20536191Y23196145D01*
X20536191Y23196145D02*
X20650476Y23234240D01*
X20650476Y23234240D02*
X20688572Y23272336D01*
X20688572Y23272336D02*
X20688572Y23539002D01*
X20688572Y23539002D02*
X20536191Y23539002D01*
X21031429Y23196145D02*
X21031429Y23996145D01*
X21031429Y23996145D02*
X21488572Y23196145D01*
X21488572Y23196145D02*
X21488572Y23996145D01*
X21869524Y23196145D02*
X21869524Y23996145D01*
X21869524Y23996145D02*
X22060000Y23996145D01*
X22060000Y23996145D02*
X22174286Y23958050D01*
X22174286Y23958050D02*
X22250476Y23881860D01*
X22250476Y23881860D02*
X22288571Y23805669D01*
X22288571Y23805669D02*
X22326667Y23653288D01*
X22326667Y23653288D02*
X22326667Y23539002D01*
X22326667Y23539002D02*
X22288571Y23386621D01*
X22288571Y23386621D02*
X22250476Y23310431D01*
X22250476Y23310431D02*
X22174286Y23234240D01*
X22174286Y23234240D02*
X22060000Y23196145D01*
X22060000Y23196145D02*
X21869524Y23196145D01*
X20650476Y4758050D02*
X20574286Y4796145D01*
X20574286Y4796145D02*
X20460000Y4796145D01*
X20460000Y4796145D02*
X20345714Y4758050D01*
X20345714Y4758050D02*
X20269524Y4681860D01*
X20269524Y4681860D02*
X20231429Y4605669D01*
X20231429Y4605669D02*
X20193333Y4453288D01*
X20193333Y4453288D02*
X20193333Y4339002D01*
X20193333Y4339002D02*
X20231429Y4186621D01*
X20231429Y4186621D02*
X20269524Y4110431D01*
X20269524Y4110431D02*
X20345714Y4034240D01*
X20345714Y4034240D02*
X20460000Y3996145D01*
X20460000Y3996145D02*
X20536191Y3996145D01*
X20536191Y3996145D02*
X20650476Y4034240D01*
X20650476Y4034240D02*
X20688572Y4072336D01*
X20688572Y4072336D02*
X20688572Y4339002D01*
X20688572Y4339002D02*
X20536191Y4339002D01*
X21031429Y3996145D02*
X21031429Y4796145D01*
X21031429Y4796145D02*
X21488572Y3996145D01*
X21488572Y3996145D02*
X21488572Y4796145D01*
X21869524Y3996145D02*
X21869524Y4796145D01*
X21869524Y4796145D02*
X22060000Y4796145D01*
X22060000Y4796145D02*
X22174286Y4758050D01*
X22174286Y4758050D02*
X22250476Y4681860D01*
X22250476Y4681860D02*
X22288571Y4605669D01*
X22288571Y4605669D02*
X22326667Y4453288D01*
X22326667Y4453288D02*
X22326667Y4339002D01*
X22326667Y4339002D02*
X22288571Y4186621D01*
X22288571Y4186621D02*
X22250476Y4110431D01*
X22250476Y4110431D02*
X22174286Y4034240D01*
X22174286Y4034240D02*
X22060000Y3996145D01*
X22060000Y3996145D02*
X21869524Y3996145D01*
X22923810Y25066145D02*
X23190477Y24266145D01*
X23190477Y24266145D02*
X23457143Y25066145D01*
X23723810Y24266145D02*
X23723810Y25066145D01*
X24104762Y24266145D02*
X24104762Y25066145D01*
X24104762Y25066145D02*
X24561905Y24266145D01*
X24561905Y24266145D02*
X24561905Y25066145D01*
X22923810Y3726145D02*
X23190477Y2926145D01*
X23190477Y2926145D02*
X23457143Y3726145D01*
X23723810Y2926145D02*
X23723810Y3726145D01*
X24104762Y2926145D02*
X24104762Y3726145D01*
X24104762Y3726145D02*
X24561905Y2926145D01*
X24561905Y2926145D02*
X24561905Y3726145D01*
X26352380Y25236145D02*
X26885714Y24436145D01*
X26885714Y25236145D02*
X26352380Y24436145D01*
X27152380Y24474240D02*
X27266666Y24436145D01*
X27266666Y24436145D02*
X27457142Y24436145D01*
X27457142Y24436145D02*
X27533333Y24474240D01*
X27533333Y24474240D02*
X27571428Y24512336D01*
X27571428Y24512336D02*
X27609523Y24588526D01*
X27609523Y24588526D02*
X27609523Y24664717D01*
X27609523Y24664717D02*
X27571428Y24740907D01*
X27571428Y24740907D02*
X27533333Y24779002D01*
X27533333Y24779002D02*
X27457142Y24817098D01*
X27457142Y24817098D02*
X27304761Y24855193D01*
X27304761Y24855193D02*
X27228571Y24893288D01*
X27228571Y24893288D02*
X27190476Y24931383D01*
X27190476Y24931383D02*
X27152380Y25007574D01*
X27152380Y25007574D02*
X27152380Y25083764D01*
X27152380Y25083764D02*
X27190476Y25159955D01*
X27190476Y25159955D02*
X27228571Y25198050D01*
X27228571Y25198050D02*
X27304761Y25236145D01*
X27304761Y25236145D02*
X27495238Y25236145D01*
X27495238Y25236145D02*
X27609523Y25198050D01*
X28409524Y24436145D02*
X28142857Y24817098D01*
X27952381Y24436145D02*
X27952381Y25236145D01*
X27952381Y25236145D02*
X28257143Y25236145D01*
X28257143Y25236145D02*
X28333333Y25198050D01*
X28333333Y25198050D02*
X28371428Y25159955D01*
X28371428Y25159955D02*
X28409524Y25083764D01*
X28409524Y25083764D02*
X28409524Y24969479D01*
X28409524Y24969479D02*
X28371428Y24893288D01*
X28371428Y24893288D02*
X28333333Y24855193D01*
X28333333Y24855193D02*
X28257143Y24817098D01*
X28257143Y24817098D02*
X27952381Y24817098D01*
X26428571Y3556145D02*
X26961905Y2756145D01*
X26961905Y3556145D02*
X26428571Y2756145D01*
X27228571Y2794240D02*
X27342857Y2756145D01*
X27342857Y2756145D02*
X27533333Y2756145D01*
X27533333Y2756145D02*
X27609524Y2794240D01*
X27609524Y2794240D02*
X27647619Y2832336D01*
X27647619Y2832336D02*
X27685714Y2908526D01*
X27685714Y2908526D02*
X27685714Y2984717D01*
X27685714Y2984717D02*
X27647619Y3060907D01*
X27647619Y3060907D02*
X27609524Y3099002D01*
X27609524Y3099002D02*
X27533333Y3137098D01*
X27533333Y3137098D02*
X27380952Y3175193D01*
X27380952Y3175193D02*
X27304762Y3213288D01*
X27304762Y3213288D02*
X27266667Y3251383D01*
X27266667Y3251383D02*
X27228571Y3327574D01*
X27228571Y3327574D02*
X27228571Y3403764D01*
X27228571Y3403764D02*
X27266667Y3479955D01*
X27266667Y3479955D02*
X27304762Y3518050D01*
X27304762Y3518050D02*
X27380952Y3556145D01*
X27380952Y3556145D02*
X27571429Y3556145D01*
X27571429Y3556145D02*
X27685714Y3518050D01*
X28409524Y2756145D02*
X28028572Y2756145D01*
X28028572Y2756145D02*
X28028572Y3556145D01*
X31047619Y24106145D02*
X30666667Y24106145D01*
X30666667Y24106145D02*
X30628571Y23725193D01*
X30628571Y23725193D02*
X30666667Y23763288D01*
X30666667Y23763288D02*
X30742857Y23801383D01*
X30742857Y23801383D02*
X30933333Y23801383D01*
X30933333Y23801383D02*
X31009524Y23763288D01*
X31009524Y23763288D02*
X31047619Y23725193D01*
X31047619Y23725193D02*
X31085714Y23649002D01*
X31085714Y23649002D02*
X31085714Y23458526D01*
X31085714Y23458526D02*
X31047619Y23382336D01*
X31047619Y23382336D02*
X31009524Y23344240D01*
X31009524Y23344240D02*
X30933333Y23306145D01*
X30933333Y23306145D02*
X30742857Y23306145D01*
X30742857Y23306145D02*
X30666667Y23344240D01*
X30666667Y23344240D02*
X30628571Y23382336D01*
X31314286Y24106145D02*
X31580953Y23306145D01*
X31580953Y23306145D02*
X31847619Y24106145D01*
X30209523Y18686145D02*
X30704761Y18686145D01*
X30704761Y18686145D02*
X30438095Y18381383D01*
X30438095Y18381383D02*
X30552380Y18381383D01*
X30552380Y18381383D02*
X30628571Y18343288D01*
X30628571Y18343288D02*
X30666666Y18305193D01*
X30666666Y18305193D02*
X30704761Y18229002D01*
X30704761Y18229002D02*
X30704761Y18038526D01*
X30704761Y18038526D02*
X30666666Y17962336D01*
X30666666Y17962336D02*
X30628571Y17924240D01*
X30628571Y17924240D02*
X30552380Y17886145D01*
X30552380Y17886145D02*
X30323809Y17886145D01*
X30323809Y17886145D02*
X30247618Y17924240D01*
X30247618Y17924240D02*
X30209523Y17962336D01*
X30933333Y18686145D02*
X31200000Y17886145D01*
X31200000Y17886145D02*
X31466666Y18686145D01*
X31657142Y18686145D02*
X32152380Y18686145D01*
X32152380Y18686145D02*
X31885714Y18381383D01*
X31885714Y18381383D02*
X31999999Y18381383D01*
X31999999Y18381383D02*
X32076190Y18343288D01*
X32076190Y18343288D02*
X32114285Y18305193D01*
X32114285Y18305193D02*
X32152380Y18229002D01*
X32152380Y18229002D02*
X32152380Y18038526D01*
X32152380Y18038526D02*
X32114285Y17962336D01*
X32114285Y17962336D02*
X32076190Y17924240D01*
X32076190Y17924240D02*
X31999999Y17886145D01*
X31999999Y17886145D02*
X31771428Y17886145D01*
X31771428Y17886145D02*
X31695237Y17924240D01*
X31695237Y17924240D02*
X31657142Y17962336D01*
X30209523Y10106145D02*
X30704761Y10106145D01*
X30704761Y10106145D02*
X30438095Y9801383D01*
X30438095Y9801383D02*
X30552380Y9801383D01*
X30552380Y9801383D02*
X30628571Y9763288D01*
X30628571Y9763288D02*
X30666666Y9725193D01*
X30666666Y9725193D02*
X30704761Y9649002D01*
X30704761Y9649002D02*
X30704761Y9458526D01*
X30704761Y9458526D02*
X30666666Y9382336D01*
X30666666Y9382336D02*
X30628571Y9344240D01*
X30628571Y9344240D02*
X30552380Y9306145D01*
X30552380Y9306145D02*
X30323809Y9306145D01*
X30323809Y9306145D02*
X30247618Y9344240D01*
X30247618Y9344240D02*
X30209523Y9382336D01*
X30933333Y10106145D02*
X31200000Y9306145D01*
X31200000Y9306145D02*
X31466666Y10106145D01*
X31657142Y10106145D02*
X32152380Y10106145D01*
X32152380Y10106145D02*
X31885714Y9801383D01*
X31885714Y9801383D02*
X31999999Y9801383D01*
X31999999Y9801383D02*
X32076190Y9763288D01*
X32076190Y9763288D02*
X32114285Y9725193D01*
X32114285Y9725193D02*
X32152380Y9649002D01*
X32152380Y9649002D02*
X32152380Y9458526D01*
X32152380Y9458526D02*
X32114285Y9382336D01*
X32114285Y9382336D02*
X32076190Y9344240D01*
X32076190Y9344240D02*
X31999999Y9306145D01*
X31999999Y9306145D02*
X31771428Y9306145D01*
X31771428Y9306145D02*
X31695237Y9344240D01*
X31695237Y9344240D02*
X31657142Y9382336D01*
X31047619Y4686145D02*
X30666667Y4686145D01*
X30666667Y4686145D02*
X30628571Y4305193D01*
X30628571Y4305193D02*
X30666667Y4343288D01*
X30666667Y4343288D02*
X30742857Y4381383D01*
X30742857Y4381383D02*
X30933333Y4381383D01*
X30933333Y4381383D02*
X31009524Y4343288D01*
X31009524Y4343288D02*
X31047619Y4305193D01*
X31047619Y4305193D02*
X31085714Y4229002D01*
X31085714Y4229002D02*
X31085714Y4038526D01*
X31085714Y4038526D02*
X31047619Y3962336D01*
X31047619Y3962336D02*
X31009524Y3924240D01*
X31009524Y3924240D02*
X30933333Y3886145D01*
X30933333Y3886145D02*
X30742857Y3886145D01*
X30742857Y3886145D02*
X30666667Y3924240D01*
X30666667Y3924240D02*
X30628571Y3962336D01*
X31314286Y4686145D02*
X31580953Y3886145D01*
X31580953Y3886145D02*
X31847619Y4686145D01*
X34395238Y23840907D02*
X35004762Y23840907D01*
X34700000Y23536145D02*
X34700000Y24145669D01*
X34395238Y4040907D02*
X35004762Y4040907D01*
X34700000Y3736145D02*
X34700000Y4345669D01*
X36935238Y23840907D02*
X37544762Y23840907D01*
X36935238Y4040907D02*
X37544762Y4040907D01*
X3449623Y23996145D02*
X3449623Y23424717D01*
X3449623Y23424717D02*
X3411528Y23310431D01*
X3411528Y23310431D02*
X3335337Y23234240D01*
X3335337Y23234240D02*
X3221052Y23196145D01*
X3221052Y23196145D02*
X3144861Y23196145D01*
X3792480Y23919955D02*
X3830576Y23958050D01*
X3830576Y23958050D02*
X3906766Y23996145D01*
X3906766Y23996145D02*
X4097242Y23996145D01*
X4097242Y23996145D02*
X4173433Y23958050D01*
X4173433Y23958050D02*
X4211528Y23919955D01*
X4211528Y23919955D02*
X4249623Y23843764D01*
X4249623Y23843764D02*
X4249623Y23767574D01*
X4249623Y23767574D02*
X4211528Y23653288D01*
X4211528Y23653288D02*
X3754385Y23196145D01*
X3754385Y23196145D02*
X4249623Y23196145D01*
X5087719Y23996145D02*
X5544862Y23996145D01*
X5316290Y23196145D02*
X5316290Y23996145D01*
X5925814Y23196145D02*
X5849624Y23234240D01*
X5849624Y23234240D02*
X5811529Y23272336D01*
X5811529Y23272336D02*
X5773433Y23348526D01*
X5773433Y23348526D02*
X5773433Y23577098D01*
X5773433Y23577098D02*
X5811529Y23653288D01*
X5811529Y23653288D02*
X5849624Y23691383D01*
X5849624Y23691383D02*
X5925814Y23729479D01*
X5925814Y23729479D02*
X6040100Y23729479D01*
X6040100Y23729479D02*
X6116291Y23691383D01*
X6116291Y23691383D02*
X6154386Y23653288D01*
X6154386Y23653288D02*
X6192481Y23577098D01*
X6192481Y23577098D02*
X6192481Y23348526D01*
X6192481Y23348526D02*
X6154386Y23272336D01*
X6154386Y23272336D02*
X6116291Y23234240D01*
X6116291Y23234240D02*
X6040100Y23196145D01*
X6040100Y23196145D02*
X5925814Y23196145D01*
X6802005Y23615193D02*
X6535339Y23615193D01*
X6535339Y23196145D02*
X6535339Y23996145D01*
X6535339Y23996145D02*
X6916291Y23996145D01*
X7221053Y23500907D02*
X7830577Y23500907D01*
X8668672Y23196145D02*
X8402005Y23577098D01*
X8211529Y23196145D02*
X8211529Y23996145D01*
X8211529Y23996145D02*
X8516291Y23996145D01*
X8516291Y23996145D02*
X8592481Y23958050D01*
X8592481Y23958050D02*
X8630576Y23919955D01*
X8630576Y23919955D02*
X8668672Y23843764D01*
X8668672Y23843764D02*
X8668672Y23729479D01*
X8668672Y23729479D02*
X8630576Y23653288D01*
X8630576Y23653288D02*
X8592481Y23615193D01*
X8592481Y23615193D02*
X8516291Y23577098D01*
X8516291Y23577098D02*
X8211529Y23577098D01*
X3602004Y4796145D02*
X3602004Y4224717D01*
X3602004Y4224717D02*
X3563909Y4110431D01*
X3563909Y4110431D02*
X3487718Y4034240D01*
X3487718Y4034240D02*
X3373433Y3996145D01*
X3373433Y3996145D02*
X3297242Y3996145D01*
X4402004Y3996145D02*
X3944861Y3996145D01*
X4173433Y3996145D02*
X4173433Y4796145D01*
X4173433Y4796145D02*
X4097242Y4681860D01*
X4097242Y4681860D02*
X4021052Y4605669D01*
X4021052Y4605669D02*
X3944861Y4567574D01*
X5240100Y4796145D02*
X5697243Y4796145D01*
X5468671Y3996145D02*
X5468671Y4796145D01*
X6078195Y3996145D02*
X6002005Y4034240D01*
X6002005Y4034240D02*
X5963910Y4072336D01*
X5963910Y4072336D02*
X5925814Y4148526D01*
X5925814Y4148526D02*
X5925814Y4377098D01*
X5925814Y4377098D02*
X5963910Y4453288D01*
X5963910Y4453288D02*
X6002005Y4491383D01*
X6002005Y4491383D02*
X6078195Y4529479D01*
X6078195Y4529479D02*
X6192481Y4529479D01*
X6192481Y4529479D02*
X6268672Y4491383D01*
X6268672Y4491383D02*
X6306767Y4453288D01*
X6306767Y4453288D02*
X6344862Y4377098D01*
X6344862Y4377098D02*
X6344862Y4148526D01*
X6344862Y4148526D02*
X6306767Y4072336D01*
X6306767Y4072336D02*
X6268672Y4034240D01*
X6268672Y4034240D02*
X6192481Y3996145D01*
X6192481Y3996145D02*
X6078195Y3996145D01*
X6954386Y4415193D02*
X6687720Y4415193D01*
X6687720Y3996145D02*
X6687720Y4796145D01*
X6687720Y4796145D02*
X7068672Y4796145D01*
X7373434Y4300907D02*
X7982958Y4300907D01*
X8744862Y3996145D02*
X8363910Y3996145D01*
X8363910Y3996145D02*
X8363910Y4796145D01*
X28832958Y16236145D02*
X28832958Y17036145D01*
X29594862Y16236145D02*
X29213910Y16236145D01*
X29213910Y16236145D02*
X29213910Y17036145D01*
X30318672Y16236145D02*
X30052005Y16617098D01*
X29861529Y16236145D02*
X29861529Y17036145D01*
X29861529Y17036145D02*
X30166291Y17036145D01*
X30166291Y17036145D02*
X30242481Y16998050D01*
X30242481Y16998050D02*
X30280576Y16959955D01*
X30280576Y16959955D02*
X30318672Y16883764D01*
X30318672Y16883764D02*
X30318672Y16769479D01*
X30318672Y16769479D02*
X30280576Y16693288D01*
X30280576Y16693288D02*
X30242481Y16655193D01*
X30242481Y16655193D02*
X30166291Y16617098D01*
X30166291Y16617098D02*
X29861529Y16617098D01*
X28642481Y14398050D02*
X28566291Y14436145D01*
X28566291Y14436145D02*
X28452005Y14436145D01*
X28452005Y14436145D02*
X28337719Y14398050D01*
X28337719Y14398050D02*
X28261529Y14321860D01*
X28261529Y14321860D02*
X28223434Y14245669D01*
X28223434Y14245669D02*
X28185338Y14093288D01*
X28185338Y14093288D02*
X28185338Y13979002D01*
X28185338Y13979002D02*
X28223434Y13826621D01*
X28223434Y13826621D02*
X28261529Y13750431D01*
X28261529Y13750431D02*
X28337719Y13674240D01*
X28337719Y13674240D02*
X28452005Y13636145D01*
X28452005Y13636145D02*
X28528196Y13636145D01*
X28528196Y13636145D02*
X28642481Y13674240D01*
X28642481Y13674240D02*
X28680577Y13712336D01*
X28680577Y13712336D02*
X28680577Y13979002D01*
X28680577Y13979002D02*
X28528196Y13979002D01*
X29023434Y13636145D02*
X29023434Y14436145D01*
X29023434Y14436145D02*
X29480577Y13636145D01*
X29480577Y13636145D02*
X29480577Y14436145D01*
X29861529Y13636145D02*
X29861529Y14436145D01*
X29861529Y14436145D02*
X30052005Y14436145D01*
X30052005Y14436145D02*
X30166291Y14398050D01*
X30166291Y14398050D02*
X30242481Y14321860D01*
X30242481Y14321860D02*
X30280576Y14245669D01*
X30280576Y14245669D02*
X30318672Y14093288D01*
X30318672Y14093288D02*
X30318672Y13979002D01*
X30318672Y13979002D02*
X30280576Y13826621D01*
X30280576Y13826621D02*
X30242481Y13750431D01*
X30242481Y13750431D02*
X30166291Y13674240D01*
X30166291Y13674240D02*
X30052005Y13636145D01*
X30052005Y13636145D02*
X29861529Y13636145D01*
X28985339Y11036145D02*
X28985339Y11836145D01*
X29747243Y11036145D02*
X29366291Y11036145D01*
X29366291Y11036145D02*
X29366291Y11836145D01*
X30394862Y11036145D02*
X30013910Y11036145D01*
X30013910Y11036145D02*
X30013910Y11836145D01*
D11*
X41464285Y21916472D02*
X40964285Y22630758D01*
X40607142Y21916472D02*
X40607142Y23416472D01*
X40607142Y23416472D02*
X41178571Y23416472D01*
X41178571Y23416472D02*
X41321428Y23345043D01*
X41321428Y23345043D02*
X41392857Y23273615D01*
X41392857Y23273615D02*
X41464285Y23130758D01*
X41464285Y23130758D02*
X41464285Y22916472D01*
X41464285Y22916472D02*
X41392857Y22773615D01*
X41392857Y22773615D02*
X41321428Y22702186D01*
X41321428Y22702186D02*
X41178571Y22630758D01*
X41178571Y22630758D02*
X40607142Y22630758D01*
X41464285Y4716472D02*
X40749999Y4716472D01*
X40749999Y4716472D02*
X40749999Y6216472D01*
%TO.C,R3*%
D10*
X2672935Y14860000D02*
X5727063Y14860000D01*
X2672935Y12140000D02*
X5727063Y12140000D01*
%TO.C,R15*%
X15657500Y18837258D02*
X15657500Y18362742D01*
X16702500Y18837258D02*
X16702500Y18362742D01*
%TO.C,R9*%
X34877500Y7237258D02*
X34877500Y6762742D01*
X35922500Y7237258D02*
X35922500Y6762742D01*
%TO.C,R7*%
X8037500Y12662742D02*
X8037500Y13137258D01*
X9082500Y12662742D02*
X9082500Y13137258D01*
%TO.C,R16*%
X13117500Y18837258D02*
X13117500Y18362742D01*
X14162500Y18837258D02*
X14162500Y18362742D01*
%TO.C,R13*%
X13117500Y9837258D02*
X13117500Y9362742D01*
X14162500Y9837258D02*
X14162500Y9362742D01*
%TO.C,R1*%
X26362742Y8822500D02*
X26837258Y8822500D01*
X26362742Y7777500D02*
X26837258Y7777500D01*
%TO.C,Q2*%
X35640000Y19160000D02*
X37160000Y19160000D01*
X35640000Y19110000D02*
X35640000Y19160000D01*
X35640000Y17210000D02*
X35640000Y17990000D01*
X35640000Y16040000D02*
X35640000Y16090000D01*
X37160000Y19160000D02*
X37160000Y18160000D01*
X37160000Y17040000D02*
X37160000Y16040000D01*
X37160000Y16040000D02*
X35640000Y16040000D01*
X35340000Y17650000D02*
X34860000Y17650000D01*
X35100000Y17980000D01*
X35340000Y17650000D01*
G36*
X35340000Y17650000D02*
G01*
X34860000Y17650000D01*
X35100000Y17980000D01*
X35340000Y17650000D01*
G37*
%TO.C,C2*%
X18210000Y18740580D02*
X18210000Y18459420D01*
X19230000Y18740580D02*
X19230000Y18459420D01*
%TO.C,R4*%
X2672935Y19260000D02*
X5727063Y19260000D01*
X2672935Y16540000D02*
X5727063Y16540000D01*
%TO.C,Q1*%
X35640000Y11960000D02*
X37160000Y11960000D01*
X35640000Y11910000D02*
X35640000Y11960000D01*
X35640000Y10010000D02*
X35640000Y10790000D01*
X35640000Y8840000D02*
X35640000Y8890000D01*
X37160000Y11960000D02*
X37160000Y10960000D01*
X37160000Y9840000D02*
X37160000Y8840000D01*
X37160000Y8840000D02*
X35640000Y8840000D01*
X35340000Y10450000D02*
X34860000Y10450000D01*
X35100000Y10780000D01*
X35340000Y10450000D01*
G36*
X35340000Y10450000D02*
G01*
X34860000Y10450000D01*
X35100000Y10780000D01*
X35340000Y10450000D01*
G37*
%TO.C,C1*%
X10365000Y18561252D02*
X10365000Y18038748D01*
X11835000Y18561252D02*
X11835000Y18038748D01*
%TO.C,SJ2*%
X30200000Y19600000D02*
X30200000Y22400000D01*
X30900000Y23050000D02*
X31500000Y23050000D01*
X31500000Y18950000D02*
X30900000Y18950000D01*
X32200000Y22400000D02*
X32200000Y19600000D01*
X32400000Y19800000D02*
X32700000Y20100000D01*
X32400000Y19800000D02*
X32700000Y19500000D01*
X32700000Y19500000D02*
X32700000Y20100000D01*
X30200000Y22350000D02*
G75*
G02*
X30900000Y23050000I700000J0D01*
G01*
X30900000Y18950000D02*
G75*
G02*
X30200000Y19650000I-1J699999D01*
G01*
X31500000Y23050000D02*
G75*
G02*
X32200000Y22350000I0J-700000D01*
G01*
X32200000Y19650000D02*
G75*
G02*
X31500000Y18950000I-699999J-1D01*
G01*
%TO.C,SJ1*%
X29700000Y8500000D02*
X29700000Y7900000D01*
X30000000Y8200000D02*
X29700000Y8500000D01*
X30000000Y8200000D02*
X29700000Y7900000D01*
X30200000Y5600000D02*
X30200000Y8400000D01*
X30900000Y9050000D02*
X31500000Y9050000D01*
X31500000Y4950000D02*
X30900000Y4950000D01*
X32200000Y8400000D02*
X32200000Y5600000D01*
X30200000Y8350000D02*
G75*
G02*
X30900000Y9050000I699999J1D01*
G01*
X30900000Y4950000D02*
G75*
G02*
X30200000Y5650000I0J700000D01*
G01*
X31500000Y9050000D02*
G75*
G02*
X32200000Y8350000I1J-699999D01*
G01*
X32200000Y5650000D02*
G75*
G02*
X31500000Y4950000I-700000J0D01*
G01*
%TO.C,R14*%
X15657500Y9837258D02*
X15657500Y9362742D01*
X16702500Y9837258D02*
X16702500Y9362742D01*
%TO.C,D1*%
X38750000Y9400000D02*
X38750000Y7400000D01*
X38750000Y9400000D02*
X43250000Y9400000D01*
X38750000Y7400000D02*
X43250000Y7400000D01*
%TO.C,U1*%
X600000Y22900000D02*
X21600000Y22900000D01*
X21600000Y5100000D01*
X600000Y5100000D01*
X600000Y22900000D01*
%TO.C,D2*%
X38750000Y20600000D02*
X38750000Y18600000D01*
X38750000Y20600000D02*
X43250000Y20600000D01*
X38750000Y18600000D02*
X43250000Y18600000D01*
%TO.C,R6*%
X10577500Y9362742D02*
X10577500Y9837258D01*
X11622500Y9362742D02*
X11622500Y9837258D01*
%TO.C,R5*%
X8037500Y9362742D02*
X8037500Y9837258D01*
X9082500Y9362742D02*
X9082500Y9837258D01*
%TO.C,R10*%
X34877500Y20762742D02*
X34877500Y21237258D01*
X35922500Y20762742D02*
X35922500Y21237258D01*
%TO.C,J4*%
X33320000Y24920000D02*
X33320000Y26300000D01*
X34700000Y24920000D02*
X33320000Y24920000D01*
X35970000Y27680000D02*
X38620000Y27680000D01*
X35970000Y24920000D02*
X35970000Y27680000D01*
X35970000Y24920000D02*
X38620000Y24920000D01*
X38620000Y24920000D02*
X38620000Y27680000D01*
%TO.C,R8*%
X10577500Y12662742D02*
X10577500Y13137258D01*
X11622500Y12662742D02*
X11622500Y13137258D01*
%TO.C,R12*%
X5497500Y9837258D02*
X5497500Y9362742D01*
X6542500Y9837258D02*
X6542500Y9362742D01*
%TO.C,J3*%
X33320000Y320000D02*
X33320000Y1700000D01*
X34700000Y320000D02*
X33320000Y320000D01*
X35970000Y3080000D02*
X38620000Y3080000D01*
X35970000Y320000D02*
X35970000Y3080000D01*
X35970000Y320000D02*
X38620000Y320000D01*
X38620000Y320000D02*
X38620000Y3080000D01*
%TO.C,C3*%
X18210000Y9740580D02*
X18210000Y9459420D01*
X19230000Y9740580D02*
X19230000Y9459420D01*
%TO.C,R2*%
X26362742Y20222500D02*
X26837258Y20222500D01*
X26362742Y19177500D02*
X26837258Y19177500D01*
%TO.C,R11*%
X2957499Y9837258D02*
X2957499Y9362742D01*
X4002499Y9837258D02*
X4002499Y9362742D01*
%TD*%
%LPC*%
%TO.C,SJ2*%
G36*
X30450000Y21750000D02*
G01*
X31950000Y21750000D01*
X31950000Y20250000D01*
X30450000Y20250000D01*
X30450000Y21750000D01*
G37*
%TO.C,SJ1*%
G36*
X30450000Y7750000D02*
G01*
X31950000Y7750000D01*
X31950000Y6250000D01*
X30450000Y6250000D01*
X30450000Y7750000D01*
G37*
%TD*%
D12*
%TO.C,R3*%
X1887499Y13500000D03*
X6512499Y13500000D03*
%TD*%
D13*
%TO.C,H2*%
X41900000Y2100000D03*
%TD*%
D14*
%TO.C,R15*%
X16180000Y19425000D03*
X16180000Y17775000D03*
%TD*%
%TO.C,R9*%
X35400000Y7825000D03*
X35400000Y6175000D03*
%TD*%
D15*
%TO.C,R7*%
X8560000Y12075000D03*
X8560000Y13725000D03*
%TD*%
D14*
%TO.C,R16*%
X13640000Y19425000D03*
X13640000Y17775000D03*
%TD*%
%TO.C,R13*%
X13640000Y10425000D03*
X13640000Y8775000D03*
%TD*%
D16*
%TO.C,TP2*%
X31800000Y14000000D03*
%TD*%
D17*
%TO.C,R1*%
X25775000Y8300000D03*
X27425000Y8300000D03*
%TD*%
D18*
%TO.C,Q2*%
X35462500Y18550000D03*
X35462500Y16650000D03*
X37337500Y17600000D03*
%TD*%
D19*
%TO.C,C2*%
X18720000Y19375000D03*
X18720000Y17825000D03*
%TD*%
D12*
%TO.C,R4*%
X1887499Y17900000D03*
X6512499Y17900000D03*
%TD*%
D18*
%TO.C,Q1*%
X35462500Y11350000D03*
X35462500Y9450000D03*
X37337500Y10400000D03*
%TD*%
D20*
%TO.C,C1*%
X11100000Y19250000D03*
X11100000Y17350000D03*
%TD*%
D16*
%TO.C,TP4*%
X7699999Y26200000D03*
%TD*%
%TO.C,TP3*%
X4600000Y26200000D03*
%TD*%
D21*
%TO.C,SJ2*%
X31200000Y19700000D03*
D22*
X31200000Y21000000D03*
D23*
X31200000Y22300000D03*
%TD*%
D24*
%TO.C,SJ1*%
X31200000Y8300000D03*
D22*
X31200000Y7000000D03*
D25*
X31200000Y5700000D03*
%TD*%
D14*
%TO.C,R14*%
X16180000Y10425000D03*
X16180000Y8775000D03*
%TD*%
D26*
%TO.C,D1*%
X39300000Y8400000D03*
D27*
X42700000Y8400000D03*
%TD*%
D28*
%TO.C,U1*%
X3480000Y6380000D03*
D29*
X6020000Y6380000D03*
X8560000Y6380000D03*
X11100000Y6380000D03*
X13640000Y6380000D03*
X16180000Y6380000D03*
X18720000Y6380000D03*
X18720000Y21620000D03*
X16180000Y21620000D03*
X13640000Y21620000D03*
X11100000Y21620000D03*
X8560000Y21620000D03*
X6020000Y21620000D03*
X3480000Y21620000D03*
%TD*%
D26*
%TO.C,D2*%
X39300000Y19600000D03*
D27*
X42700000Y19600000D03*
%TD*%
D16*
%TO.C,TP7*%
X31800000Y11400000D03*
%TD*%
D15*
%TO.C,R6*%
X11100000Y8775000D03*
X11100000Y10425000D03*
%TD*%
%TO.C,R5*%
X8560000Y8775000D03*
X8560000Y10425000D03*
%TD*%
D16*
%TO.C,TP8*%
X31800000Y16600000D03*
%TD*%
D15*
%TO.C,R10*%
X35400000Y20175000D03*
X35400000Y21825000D03*
%TD*%
D30*
%TO.C,J4*%
X34700000Y26300000D03*
D31*
X37240000Y26300000D03*
%TD*%
D15*
%TO.C,R8*%
X11100000Y12075000D03*
X11100000Y13725000D03*
%TD*%
D16*
%TO.C,TP5*%
X27400000Y1800000D03*
%TD*%
D14*
%TO.C,R12*%
X6020000Y10425000D03*
X6020000Y8775000D03*
%TD*%
D13*
%TO.C,H1*%
X41900000Y25900000D03*
%TD*%
D30*
%TO.C,J2*%
X23800000Y26550000D03*
D31*
X21260000Y26550000D03*
X18720000Y26550000D03*
X16180000Y26550000D03*
X13640000Y26550000D03*
X11100000Y26550000D03*
%TD*%
D30*
%TO.C,J3*%
X34700000Y1700000D03*
D31*
X37240000Y1700000D03*
%TD*%
D19*
%TO.C,C3*%
X18720000Y10375000D03*
X18720000Y8825000D03*
%TD*%
D16*
%TO.C,TP6*%
X27400000Y26200000D03*
%TD*%
D17*
%TO.C,R2*%
X25775000Y19700000D03*
X27425000Y19700000D03*
%TD*%
D30*
%TO.C,J1*%
X23800000Y1450000D03*
D31*
X21260000Y1450000D03*
X18720000Y1450000D03*
X16180000Y1450000D03*
X13640000Y1450000D03*
X11100000Y1450000D03*
%TD*%
D14*
%TO.C,R11*%
X3479999Y10425000D03*
X3479999Y8775000D03*
%TD*%
D16*
%TO.C,TP1*%
X1500000Y26200000D03*
%TD*%
%LPD*%
M02*
